<?xml version="1.0" encoding="utf-8"?>
<!-- Generator: Adobe Illustrator 16.0.0, SVG Export Plug-In . SVG Version: 6.00 Build 0)  -->
<!DOCTYPE svg PUBLIC "-//W3C//DTD SVG 1.1//EN" "http://www.w3.org/Graphics/SVG/1.1/DTD/svg11.dtd">
<svg version="1.1" id="Layer_1" xmlns="http://www.w3.org/2000/svg" xmlns:xlink="http://www.w3.org/1999/xlink" x="0px" y="0px"
	 width="3300px" height="1100px" viewBox="0 0 3300 1100" enable-background="new 0 0 3300 1100" xml:space="preserve">
<g id="jvuV3k_1_">
	<g>
		<path fill-rule="evenodd" clip-rule="evenodd" fill="#E2DDD5" d="M3026.495,407.937c-32.994,0-65.987,0.009-98.981-0.003
			c-19.295-0.008-32.374-12.983-32.381-32.208c-0.021-66.488-0.023-132.976,0.002-199.463c0.007-18.907,13.165-32.117,32.018-32.125
			c66.654-0.029,133.309-0.03,199.963,0c18.611,0.008,31.811,13.217,31.814,31.761c0.018,66.821,0.02,133.642-0.001,200.463
			c-0.006,18.338-13.174,31.549-31.452,31.566C3093.816,407.959,3060.155,407.937,3026.495,407.937z M2925.81,256.143
			c0,2.102,0,3.744,0,5.387c0,34.322-0.007,68.643,0.003,102.964c0.003,9.647,3.17,12.785,12.904,12.786
			c58.812,0.007,117.627,0.006,176.439,0c10.08-0.001,13.134-3.033,13.136-13.04c0.009-34.155,0.004-68.31,0.004-102.465
			c0-1.783,0-3.565,0-5.532c-7.756,0-14.958,0-22.234,0c12.419,53.773-27.673,98.273-73.624,100.774
			c-24.047,1.309-45.076-6.117-62.158-23.148c-21.64-21.573-28.281-47.798-22.08-77.726
			C2940.731,256.143,2933.627,256.143,2925.81,256.143z M3077.809,276.174c0.079-27.678-22.591-50.549-50.381-50.827
			c-27.869-0.279-50.869,22.51-51.079,50.608c-0.205,27.547,22.618,50.595,50.357,50.852
			C3054.505,327.063,3077.729,304.052,3077.809,276.174z M3102.896,225.236c4.83,0,9.66,0.066,14.488-0.016
			c7.108-0.12,10.812-3.725,10.883-10.764c0.098-9.658,0.101-19.318-0.002-28.977c-0.072-6.788-3.776-10.557-10.486-10.633
			c-9.824-0.111-19.651-0.113-29.476,0.002c-6.438,0.076-10.312,3.877-10.394,10.237c-0.126,9.991-0.128,19.985,0.003,29.976
			c0.08,6.138,3.882,9.936,9.996,10.129C3092.9,225.351,3097.899,225.224,3102.896,225.236z"/>
		<path fill-rule="evenodd" clip-rule="evenodd" fill="#E2DDD5" d="M2086.677,217.253c-6.669,10.413-16.524,17.62-28.408,23.101
			c9.714,0,19.428,0,29.142,0c0.196,0.339,0.393,0.678,0.589,1.017c-5.089,3.556-10.161,7.138-15.28,10.653
			c-1.505,1.033-3.034,2.308-4.736,2.734c-12.015,3.003-15.378,12.184-19.143,22.836c-19.655,55.626-57.43,93.819-115.218,107.429
			c-60.21,14.18-113.114-2.698-156.978-46.716c-0.323-0.324-0.528-0.768-1.545-2.284c29.229,10.684,57.408,10.773,86.285-0.74
			c-24.194-9.498-37.789-26.413-40.344-51.914c7.604,1.883,14.736,3.648,21.87,5.414c0.199-0.389,0.397-0.778,0.597-1.167
			c-23.714-15.73-32.758-37.38-27.155-65.26c7.154,4.301,13.928,8.374,20.7,12.445c0.354-0.406,0.709-0.812,1.063-1.218
			c-10.348-13.579-14.39-28.821-11.673-45.517c2.113-12.981,8.318-24.162,16.344-30.982c20.414,42.81,52.68,72.348,97.957,87.914
			c1.517-18.141,8.616-32.82,22.828-43.71c26.06-19.968,64.697-13.422,82.434,14.163c2.277,3.543,4.623,5.106,8.799,4.675
			C2065.335,219.035,2075.893,218.207,2086.677,217.253z"/>
		<path fill-rule="evenodd" clip-rule="evenodd" fill="#E2DDD5" d="M1381.002,157.029c45.984,0,91.969-0.002,137.954,0.001
			c10.312,0.001,13.014,2.703,13.015,13.004c0.002,65.978,0.002,131.957,0,197.934c0,10.299-2.703,13.001-13.019,13.001
			c-91.969,0.003-183.938,0.003-275.908,0c-10.312,0-13.014-2.702-13.015-13.005c-0.002-65.978-0.002-131.956,0-197.934
			c0-10.299,2.703-13,13.019-13.001C1289.032,157.026,1335.017,157.029,1381.002,157.029z M1498.024,177.369
			c-78.26,0-155.77,0-234.113,0c1.584,1.728,2.613,2.935,3.73,4.055c18.594,18.646,37.198,37.282,55.804,55.917
			c14.956,14.978,30.003,29.866,44.824,44.976c4.538,4.627,9.768,7.89,15.928,5.792c4.458-1.517,8.61-4.905,12.041-8.32
			c32.949-32.808,65.718-65.798,98.527-98.745C1495.759,180.043,1496.641,178.934,1498.024,177.369z M1496.994,360.62
			c-25.868-25.744-51.733-51.486-77.685-77.314c-4.352,4.071-9.108,8.714-14.07,13.126c-18.768,16.689-29.742,16.674-48.535-0.059
			c-5.051-4.497-9.917-9.202-13.858-12.872c-26.131,25.986-51.919,51.63-77.552,77.119
			C1342.289,360.62,1419.785,360.62,1496.994,360.62z M1327.222,269.125c-25.533-25.489-51.276-51.19-76.839-76.709
			c0,50.868,0,102.343,0,153.322C1276.049,320.147,1301.815,294.457,1327.222,269.125z M1434.825,268.72
			c25.629,25.599,51.367,51.305,76.78,76.688c0-50.703,0-102.191,0-153.331C1485.851,217.785,1460.087,243.502,1434.825,268.72z"/>
		<path fill-rule="evenodd" clip-rule="evenodd" fill="#E2DDD5" d="M373.987,211.703c0.142,13.205-2.932,25.781-8.093,37.791
			c-23.59,54.894-47.338,109.72-71.027,164.573c-2.731,6.325-5.2,8.047-11.08,8.082c-5.654,0.034-8.563-3.006-10.695-7.984
			c-21.299-49.742-42.676-99.451-64.206-149.094c-5.214-12.022-11.685-23.426-14.311-36.561
			c-10.062-50.334,26.036-100.525,77.022-106.634C326.707,115.274,374.011,156.776,373.987,211.703z M322.993,211.445
			c-0.016-21.686-17.648-39.381-39.298-39.438c-21.95-0.058-39.704,17.633-39.688,39.547c0.016,21.686,17.648,39.381,39.298,39.438
			C305.255,251.051,323.01,233.36,322.993,211.445z"/>
		<path fill-rule="evenodd" clip-rule="evenodd" fill="#E2DDD5" d="M797.733,342.746c34.019-39.768,60.786-83.251,80.435-131.858
			c-5.619-2.127-10.984-4.099-16.303-6.186c-8.402-3.297-11.982-10.932-8.854-19.357c7.571-20.395,15.213-40.765,22.961-61.094
			c3.74-9.814,10.615-12.251,20.726-9.285c15.424,4.524,27.521,13.634,37.979,25.333c6.39,7.147,8.493,14.958,5.746,24.769
			c-5.796,20.7-13.862,40.453-22.375,60.114c-21.874,50.522-50.077,97.245-84.502,140.119
			c-13.103,16.319-27.519,31.593-41.555,47.146c-3.538,3.92-7.775,7.261-11.946,10.545c-4.99,3.93-11.068,3.778-16.745,2.645
			c-17.572-3.508-32.546-11.964-44.872-25.028c-4.9-5.194-5.122-13.894,0.021-19.577c15.272-16.879,30.657-33.656,46.136-50.346
			c4.973-5.362,12.705-5.447,18.975-0.563c2.353,1.833,4.488,3.945,6.717,5.937C792.5,338.046,794.717,340.041,797.733,342.746z"/>
		<path fill-rule="evenodd" clip-rule="evenodd" fill="#E2DDD5" d="M2436.3,274.885c-9.639,0-18.428,0-27.604,0
			c0-15.899,0-31.464,0-47.631c9.216,0,18.434,0,28.235,0c0-12.863-0.134-25.139,0.04-37.411
			c0.151-10.742,3.146-20.677,9.625-29.376c8.289-11.13,20.057-16.996,33.273-17.885c17.354-1.168,34.845-0.287,52.641-0.287
			c0,14.369,0,29.261,0,45.036c-5.902,0-11.811,0-17.72,0c-3.666,0-7.332-0.052-10.997,0.006
			c-7.001,0.111-11.519,3.803-11.871,10.85c-0.457,9.11-0.111,18.261-0.111,28.032c13.881,0,27.598,0,41.774,0
			c-1.646,16.151-3.223,31.623-4.858,47.671c-12.555,0-24.955,0-37.797,0c0,44.341,0,88.088,0,132.261c-18.336,0-36.226,0-54.63,0
			C2436.3,362.706,2436.3,319.145,2436.3,274.885z"/>
	</g>
</g>
<g id="jvuV3k_2_">
	<g>
		<path fill-rule="evenodd" clip-rule="evenodd" fill="#FFFFFF" d="M3026.495,957.938c-32.994,0-65.987,0.008-98.981-0.004
			c-19.295-0.008-32.374-12.982-32.381-32.207c-0.021-66.488-0.023-132.977,0.002-199.464c0.007-18.907,13.165-32.117,32.018-32.126
			c66.654-0.028,133.309-0.029,199.963,0.001c18.611,0.009,31.811,13.218,31.814,31.761c0.018,66.821,0.02,133.643-0.001,200.463
			c-0.006,18.338-13.174,31.549-31.452,31.566C3093.816,957.959,3060.155,957.938,3026.495,957.938z M2925.81,806.144
			c0,2.102,0,3.744,0,5.387c0,34.321-0.007,68.644,0.003,102.964c0.003,9.648,3.17,12.785,12.904,12.787
			c58.812,0.006,117.627,0.006,176.439,0c10.08-0.002,13.134-3.033,13.136-13.041c0.009-34.154,0.004-68.309,0.004-102.465
			c0-1.782,0-3.564,0-5.531c-7.756,0-14.958,0-22.234,0c12.419,53.773-27.673,98.273-73.624,100.773
			c-24.047,1.309-45.076-6.117-62.158-23.148c-21.64-21.572-28.281-47.797-22.08-77.726
			C2940.731,806.144,2933.627,806.144,2925.81,806.144z M3077.809,826.174c0.079-27.678-22.591-50.549-50.381-50.826
			c-27.869-0.279-50.869,22.51-51.079,50.607c-0.205,27.547,22.618,50.596,50.357,50.852
			C3054.505,877.064,3077.729,854.053,3077.809,826.174z M3102.896,775.236c4.83,0,9.66,0.066,14.488-0.016
			c7.108-0.119,10.812-3.725,10.883-10.764c0.098-9.658,0.101-19.318-0.002-28.977c-0.072-6.788-3.776-10.557-10.486-10.633
			c-9.824-0.111-19.651-0.113-29.476,0.002c-6.438,0.076-10.312,3.878-10.394,10.238c-0.126,9.99-0.128,19.984,0.003,29.975
			c0.08,6.139,3.882,9.936,9.996,10.13C3092.9,775.352,3097.899,775.225,3102.896,775.236z"/>
		<path fill-rule="evenodd" clip-rule="evenodd" fill="#FFFFFF" d="M2086.677,767.254c-6.669,10.413-16.524,17.62-28.408,23.102
			c9.714,0,19.428,0,29.142,0c0.196,0.338,0.393,0.678,0.589,1.016c-5.089,3.557-10.161,7.139-15.28,10.653
			c-1.505,1.033-3.034,2.308-4.736,2.733c-12.015,3.004-15.378,12.184-19.143,22.836c-19.655,55.627-57.43,93.82-115.218,107.43
			c-60.21,14.18-113.114-2.699-156.978-46.717c-0.323-0.324-0.528-0.768-1.545-2.283c29.229,10.684,57.408,10.773,86.285-0.74
			c-24.194-9.498-37.789-26.414-40.344-51.914c7.604,1.883,14.736,3.648,21.87,5.414c0.199-0.389,0.397-0.779,0.597-1.168
			c-23.714-15.73-32.758-37.379-27.155-65.26c7.154,4.301,13.928,8.373,20.7,12.445c0.354-0.406,0.709-0.812,1.063-1.219
			c-10.348-13.578-14.39-28.82-11.673-45.517c2.113-12.981,8.318-24.162,16.344-30.981c20.414,42.81,52.68,72.348,97.957,87.913
			c1.517-18.142,8.616-32.82,22.828-43.71c26.06-19.968,64.697-13.422,82.434,14.162c2.277,3.543,4.623,5.107,8.799,4.676
			C2065.335,769.035,2075.893,768.207,2086.677,767.254z"/>
		<path fill-rule="evenodd" clip-rule="evenodd" fill="#FFFFFF" d="M1381.002,707.029c45.984,0,91.969-0.002,137.954,0.002
			c10.312,0,13.014,2.702,13.015,13.004c0.002,65.979,0.002,131.957,0,197.934c0,10.299-2.703,13.002-13.019,13.002
			c-91.969,0.002-183.938,0.002-275.908,0c-10.312,0-13.014-2.703-13.015-13.006c-0.002-65.977-0.002-131.955,0-197.934
			c0-10.299,2.703-13,13.019-13C1289.032,707.027,1335.017,707.029,1381.002,707.029z M1498.024,727.369
			c-78.26,0-155.77,0-234.113,0c1.584,1.729,2.613,2.936,3.73,4.055c18.594,18.646,37.198,37.282,55.804,55.916
			c14.956,14.979,30.003,29.866,44.824,44.977c4.538,4.627,9.768,7.889,15.928,5.791c4.458-1.516,8.61-4.904,12.041-8.32
			c32.949-32.808,65.718-65.797,98.527-98.744C1495.759,730.044,1496.641,728.935,1498.024,727.369z M1496.994,910.621
			c-25.868-25.744-51.733-51.486-77.685-77.314c-4.352,4.07-9.108,8.713-14.07,13.125c-18.768,16.689-29.742,16.674-48.535-0.059
			c-5.051-4.496-9.917-9.201-13.858-12.871c-26.131,25.986-51.919,51.629-77.552,77.119
			C1342.289,910.621,1419.785,910.621,1496.994,910.621z M1327.222,819.125c-25.533-25.488-51.276-51.189-76.839-76.709
			c0,50.867,0,102.344,0,153.322C1276.049,870.148,1301.815,844.457,1327.222,819.125z M1434.825,818.721
			c25.629,25.598,51.367,51.305,76.78,76.688c0-50.703,0-102.191,0-153.331C1485.851,767.785,1460.087,793.503,1434.825,818.721z"/>
		<path fill-rule="evenodd" clip-rule="evenodd" fill="#FFFFFF" d="M373.987,761.703c0.142,13.205-2.932,25.781-8.093,37.791
			c-23.59,54.895-47.338,109.721-71.027,164.572c-2.731,6.326-5.2,8.047-11.08,8.082c-5.654,0.035-8.563-3.006-10.695-7.984
			c-21.299-49.742-42.676-99.451-64.206-149.094c-5.214-12.021-11.685-23.426-14.311-36.561
			c-10.062-50.334,26.036-100.525,77.022-106.633C326.707,665.274,374.011,706.776,373.987,761.703z M322.993,761.445
			c-0.016-21.686-17.648-39.381-39.298-39.438c-21.95-0.059-39.704,17.633-39.688,39.547c0.016,21.686,17.648,39.381,39.298,39.438
			C305.255,801.051,323.01,783.36,322.993,761.445z"/>
		<path fill-rule="evenodd" clip-rule="evenodd" fill="#FFFFFF" d="M797.733,892.746c34.019-39.768,60.786-83.25,80.435-131.857
			c-5.619-2.127-10.984-4.099-16.303-6.186c-8.402-3.297-11.982-10.932-8.854-19.357c7.571-20.396,15.213-40.766,22.961-61.094
			c3.74-9.814,10.615-12.252,20.726-9.285c15.424,4.523,27.521,13.633,37.979,25.332c6.39,7.148,8.493,14.958,5.746,24.77
			c-5.796,20.699-13.862,40.452-22.375,60.113c-21.874,50.523-50.077,97.246-84.502,140.119
			c-13.103,16.32-27.519,31.594-41.555,47.146c-3.538,3.92-7.775,7.262-11.946,10.545c-4.99,3.93-11.068,3.779-16.745,2.645
			c-17.572-3.508-32.546-11.963-44.872-25.027c-4.9-5.195-5.122-13.895,0.021-19.578c15.272-16.879,30.657-33.656,46.136-50.346
			c4.973-5.361,12.705-5.447,18.975-0.562c2.353,1.832,4.488,3.945,6.717,5.936C792.5,888.047,794.717,890.041,797.733,892.746z"/>
		<path fill-rule="evenodd" clip-rule="evenodd" fill="#FFFFFF" d="M2436.3,824.885c-9.639,0-18.428,0-27.604,0
			c0-15.898,0-31.463,0-47.631c9.216,0,18.434,0,28.235,0c0-12.863-0.134-25.139,0.04-37.41c0.151-10.742,3.146-20.677,9.625-29.376
			c8.289-11.13,20.057-16.995,33.273-17.886c17.354-1.168,34.845-0.286,52.641-0.286c0,14.369,0,29.261,0,45.036
			c-5.902,0-11.811,0-17.72-0.001c-3.666-0.001-7.332-0.052-10.997,0.006c-7.001,0.11-11.519,3.803-11.871,10.851
			c-0.457,9.109-0.111,18.261-0.111,28.031c13.881,0,27.598,0,41.774,0c-1.646,16.15-3.223,31.623-4.858,47.671
			c-12.555,0-24.955,0-37.797,0c0,44.341,0,88.089,0,132.261c-18.336,0-36.226,0-54.63,0
			C2436.3,912.707,2436.3,869.145,2436.3,824.885z"/>
	</g>
</g>
</svg>
