<?xml version="1.0" encoding="utf-8"?>
<!-- Generator: Adobe Illustrator 16.0.4, SVG Export Plug-In . SVG Version: 6.00 Build 0)  -->
<!DOCTYPE svg PUBLIC "-//W3C//DTD SVG 1.1//EN" "http://www.w3.org/Graphics/SVG/1.1/DTD/svg11.dtd">
<svg version="1.1" id="Layer_1" xmlns="http://www.w3.org/2000/svg" xmlns:xlink="http://www.w3.org/1999/xlink" x="0px" y="0px"
	 width="1000px" height="500px" viewBox="0 0 1000 500" enable-background="new 0 0 1000 500" xml:space="preserve">
<g>
	<g>
		<path fill="#FFFFFF" d="M193.733,250.487L386.828,66.025c15.169-14.492,15.169-37.983,0-52.477
			c-15.169-14.491-39.773-14.491-54.918,0L112.16,223.451c-7.799,7.45-11.576,17.278-11.357,27.04
			c-0.219,9.763,3.559,19.594,11.357,27.057l219.75,209.901c15.145,14.47,39.749,14.47,54.918,0
			c15.169-14.517,15.169-38.008,0-52.499L193.733,250.487z"/>
	</g>
</g>
<g>
	<g>
		<path fill="#FF6A6A" d="M693.733,250.487L886.827,66.025c15.17-14.492,15.17-37.983,0-52.477
			c-15.17-14.491-39.772-14.491-54.918,0L612.159,223.45c-7.798,7.45-11.575,17.278-11.355,27.04
			c-0.22,9.763,3.56,19.594,11.355,27.057l219.75,209.901c15.146,14.47,39.748,14.47,54.918,0c15.17-14.517,15.17-38.008,0-52.499
			L693.733,250.487z"/>
	</g>
</g>
<g id="Layer_2">
</g>
</svg>
