<?xml version="1.0" encoding="utf-8"?>
<!-- Generator: Adobe Illustrator 16.0.0, SVG Export Plug-In . SVG Version: 6.00 Build 0)  -->
<!DOCTYPE svg PUBLIC "-//W3C//DTD SVG 1.1//EN" "http://www.w3.org/Graphics/SVG/1.1/DTD/svg11.dtd">
<svg version="1.1" id="Layer_1" xmlns="http://www.w3.org/2000/svg" xmlns:xlink="http://www.w3.org/1999/xlink" x="0px" y="0px"
	 width="2000px" height="1000px" viewBox="0 0 2000 1000" enable-background="new 0 0 2000 1000" xml:space="preserve">
<path fill-rule="evenodd" clip-rule="evenodd" fill="#FFFFFF" d="M409.776,991.812c-113.48-2.944-214.802-39.303-303.347-110.657
	c-8.286-6.678-16.328-13.66-24.354-20.654c-51.302-44.685-53.877-122.827-5.673-170.87c44.861-44.709,118.087-44.929,163.287-0.805
	c35.089,34.254,77.351,55.075,125.055,65.359c22.921,4.939,46.159,6.45,69.426,4.712c54.829-4.099,104.134-22.934,146.702-58.02
	c50.493-41.618,82.054-94.784,91.713-159.538c13.749-92.182-14.365-170.706-82.529-234.032
	c-38.752-36.004-85.402-57.13-137.904-63.946c-76.253-9.896-144.076,10.289-203.329,59.289
	c-10.094,8.35-19.397,17.998-30.448,24.796c-70.585,43.413-163.841-0.615-175.223-82.698c-5.532-39.891,6.365-74.653,35.917-102.113
	C128.705,96.513,185.193,61.197,249.095,38.03c60.771-22.034,123.531-32.2,187.977-29.225
	c116.338,5.368,218.912,46.289,306.204,123.611c80.569,71.365,131.627,160.393,154.692,265.44
	c10.414,47.429,13.431,95.537,8.926,143.78C894.99,669.126,842.229,777.014,747.9,863.727
	c-66.316,60.964-144.277,99.994-232.601,118.172C480.489,989.062,445.344,992.394,409.776,991.812z"/>
<path fill-rule="evenodd" clip-rule="evenodd" fill="#FBAC44" d="M1581.305,385.716c2.686,0,4.793,0,6.906,0
	c84.506,0,169.014-0.012,253.521,0.004c58.409,0.012,104.613,38.563,115.175,96.049c11.633,63.345-34.994,125.768-99.199,132.737
	c-4.939,0.537-9.932,0.857-14.898,0.857c-85.008,0.053-170.01,0.041-255.017,0.041c-1.962,0-3.924,0-6.487,0
	c0,2.575,0,4.684,0,6.791c0,84.507,0.021,169.014-0.008,253.521c-0.02,55.729-36.439,101.181-90.859,113.517
	c-62.631,14.192-126.975-28.997-136.975-92.099c-1.166-7.344-1.783-14.854-1.795-22.287c-0.127-84.341-0.078-168.682-0.078-253.021
	c0-1.958,0-3.916,0-6.422c-2.371,0-4.317,0-6.259,0c-85.335,0-170.675,0.004-256.015-0.004
	c-55.311-0.009-102.957-40.741-112.346-95.182c-10.244-59.397,27.996-121.542,94.514-133.077c6.507-1.127,13.237-1.361,19.867-1.369
	c84.34-0.087,168.68-0.057,253.021-0.057c2.145,0,4.289,0,7.217,0c0-2.376,0-4.454,0-6.534c0-85.839-0.027-171.677,0.009-257.514
	c0.024-56.693,44.506-105.771,100.905-112.392c59.607-6.999,116.314,32.698,127.241,94.625c1.235,6.991,1.487,14.227,1.495,21.35
	c0.098,84.673,0.064,169.347,0.064,254.021C1581.305,381.217,1581.305,383.163,1581.305,385.716z"/>
</svg>
