<?xml version="1.0" encoding="utf-8"?>
<!-- Generator: Adobe Illustrator 16.0.0, SVG Export Plug-In . SVG Version: 6.00 Build 0)  -->
<!DOCTYPE svg PUBLIC "-//W3C//DTD SVG 1.1//EN" "http://www.w3.org/Graphics/SVG/1.1/DTD/svg11.dtd">
<svg version="1.1" id="Layer_1" xmlns="http://www.w3.org/2000/svg" xmlns:xlink="http://www.w3.org/1999/xlink" x="0px" y="0px"
	 width="1000px" height="500px" viewBox="0 0 1000 500" enable-background="new 0 0 1000 500" xml:space="preserve">
<g>
	<path fill="#282C37" d="M410.137,179.916c-4.225,31.281-10.062,62.153-16.641,93.014c-2.934,13.786-6.245,29.834-15.455,40.935
		c0.581-0.697-6.17-12.015-9.16-18.438c-17.475-37.594-22.033-79.6-35.228-118.549c-6.529-19.266-34.992-11.576-30.502,8.407
		c5.64,25.047,16.072,129.686-21.082,132.404c-9.071-0.247-18.858-3.2-28.22-7.766c12.524-12.218,22.42-26.907,27.942-43.295
		c14.429-42.825,7.276-97.862-44.783-104.82c-58.33-7.795-64.673,67.827-58.008,107.006c2.468,14.511,9.88,27.982,20.144,39.633
		c-9.951,3.816-20.449,5.924-30.817,5.992c-22.802-6.152-13-42.598-12.564-60.856c0.074-3.138,0.118-6.285,0.188-9.426
		c5.785-41.892,1.729-87.731,1.837-124.809c0.062-20.399-31.546-20.39-31.626,0c-0.049,12.728-0.071,25.489-0.124,38.263
		c-0.022,3.78-0.056,7.558-0.093,11.338c-0.018,3.385-0.059,6.77-0.086,10.155c-0.009,0.473-0.031,0.945-0.037,1.421
		C104.552,166.762,77,165.539,49.716,178.3c-50.72,23.726-52.604,96.47-32.627,140.801c21.903,48.619,82.936,30.521,110.367-0.97
		c5.47,13.837,16.036,24.338,34.712,27.407c0.086,0.013,0.16,0.007,0.247,0.019c1.226,0.311,2.529,0.521,3.959,0.544
		c20.233,0.371,40.861-5.294,59.226-15.338c16.335,10.262,34.776,16.796,51.877,18.204c1.405,0.296,2.903,0.471,4.593,0.347
		c1.6,0.05,3.033-0.167,4.38-0.488c28.998-3.736,44.359-22.589,48.508-50.991c5.853,15.912,13.574,31.163,25.221,41.516
		c57.483,51.109,77.657-130.266,80.46-151.026C443.326,168.39,412.861,159.785,410.137,179.916z M218.619,282.021
		c-14.67-19.037-18.265-70.189,3.126-85.863c22.132-16.224,34.035,12.236,35.066,28.186c1.038,15.983-3.607,30.986-11.211,44.842
		c-4.633,8.451-10.915,15.986-18.266,22.387C224.062,288.471,221.112,285.252,218.619,282.021z M81.694,315.686
		c-47.557,17.457-47.39-54.189-41.064-81.249c9.148-39.15,67.23-45.753,83.547-10.109c-0.266,4.543-0.432,9.102-0.782,13.63
		C121.27,265.479,110.423,305.136,81.694,315.686z"/>
	<path fill="#282C37" d="M995.549,226.533c-0.58-21.258-1.174-51.223-28.068-53.403c-21.718-1.76-39.161,33.387-47.153,48.499
		c-1.372,2.594-2.688,5.288-4.021,7.947c0.013-0.809,0.043-1.619,0.056-2.431c0.347-22.626-4.769-49.08-29.428-56.019
		c-22.705-6.387-34.641,23.63-40.371,39.48c-4.621,12.79-8.611,25.903-12.663,39.005c0.196-23.609-0.514-47.189-4.188-70.782
		c-1.402-8.994-8.277-12.218-15.164-11.286c-6.882-0.898-13.793,2.338-15.332,11.286c-4.336,25.221-13.033,50.497-25.968,73.086
		c-0.524-15.415-1.013-30.836-1.562-46.297c-0.717-20.125-13.236-35.156-32.064-40.821c-25.597-7.706-73.84,6.64-92.92,25.647
		c-10.094,10.053-2.335,26.432,11.18,26.994l0.297,0.012c4.484,0.186,7.919-1.248,10.421-3.527c1.311-0.787,3.924-2.714,4.756-3.159
		c4.727-2.542,9.648-4.781,14.608-6.826c12.33-5.086,25.376-8.941,38.769-9.129c21.902-0.309,13.483,38.294,13.75,51.686
		c0.019,0.887,0.066,1.773,0.092,2.659c-9.246-8.586-19.927-15.285-31.854-18.957c-43.888-13.515-67.521,24.054-71.968,61.017
		c-0.648,1.791-1.007,3.823-0.896,6.152c1.124,23.903-24.534,27.45-41.323,19.68c-2.236-1.038-4.38-2.148-6.469-3.299
		c16.976-16.529,29.73-37.187,34.956-58.769c6.312-26.123,1.581-58.783-19.16-77.123c-21.533-19.041-57.062-11.996-74.878,7.941
		c-17.493,19.581-19.531,58.175-13.973,82.327c3.885,16.888,11.854,31.169,22.441,43.412c-11.453,5.46-23.468,8.326-34.536,6.721
		c-23.437-9.574-9.55-109.308-8.969-129.387c0.476-16.292,1.104-32.667,1.52-49.061c22.317-0.195,44.646-0.686,66.983-0.781
		c20.384-0.09,20.396-31.716,0-31.626c-22.207,0.096-44.396,0.581-66.582,0.778c-0.031-17.181-0.574-34.332-2.095-51.38
		c-1.804-20.146-33.441-20.322-31.626,0c1.521,17.049,2.119,34.196,2.262,51.38c-18.454-0.21-36.901-0.846-55.347-2.36
		c-20.341-1.667-20.18,29.971,0,31.626c18.374,1.507,36.753,2.144,55.137,2.356c-0.655,30.351-2.262,60.723-3.039,90.827
		c-0.977,37.994-10.958,91.383,24.732,113.682c1.871,2.225,4.669,3.866,8.61,4.441c3.416,1.396,6.461,1.507,9.08,0.76
		c20.248,0.814,40.429-5.251,58.428-15.832c5.288,3.806,10.835,7.356,16.561,10.675c21.677,12.562,49.546,10.271,68.287-3.423
		c18.858,22.502,58.323,14.77,86.867-3.515c3.99-2.558,7.82-5.251,11.563-8.024c0.13,1.699,0.259,3.403,0.383,5.108
		c1.477,20.125,31.466,20.606,31.626,0c0.03-4.299-0.29-8.673-0.81-13.063c-0.408-6.394-0.858-12.786-1.187-19.168
		c10.477-11.525,19.55-24.114,27.204-37.592c-0.668,22.94-1.946,45.9-1.712,68.748c0.161,15.925,21.236,21.342,29.465,7.981
		c24.09-39.089,33.38-85.255,48.859-128.077c6.462-17.857,5.474,8.021,5.621,13.815c0.246,9.929-0.741,19.942-1.471,29.833
		c-1.965,26.401-0.977,53.019-0.977,79.475c0,20.835,29.477,19.814,31.627,0c3.249-30.076,16.604-57.348,27.895-85.021
		c3.423-8.378,6.845-15.952,11.292-23.809c2.102-3.585,4.312-7.097,6.646-10.532c1.396-1.875,2.805-3.746,4.199-5.621
		c3.36,17.66,0.402,39.715,0.347,56.485c-0.086,23.17-0.716,46.347-0.1,69.51c0.531,20.359,32.157,20.409,31.626,0
		C994.845,300.503,996.537,263.516,995.549,226.533z M546.976,220.724c5.608-29.202,38.816-27.846,45.562-0.717
		c4.176,16.768-1.074,35.292-9.142,49.808c-4.491,8.067-11.495,16.494-19.896,24.055
		C547.143,274.448,541.602,248.73,546.976,220.724z M689.473,324.445c-24.387,8.258-22.272-19.816-21.749-31.473
		c0.864-19.451,10.822-35.679,32.584-32.281c16.189,2.526,28.791,18.464,36.562,36.19
		C723.199,308.78,707.454,318.349,689.473,324.445z"/>
	<polygon fill="#282C37" points="388.141,396.981 393.435,396.981 393.435,448.652 388.141,448.652 388.141,459.646 
		412.707,459.646 412.707,448.652 407.407,448.652 407.407,396.981 412.707,396.981 412.707,385.986 388.141,385.986 	"/>
	<polygon fill="#282C37" points="501.668,396.981 506.961,396.981 507.011,426.291 488.202,385.986 469.565,385.986 
		469.565,396.981 474.859,396.981 474.915,448.652 469.565,448.652 469.565,459.646 494.132,459.646 494.132,448.652 
		488.776,448.652 488.776,419.336 507.592,459.646 526.233,459.646 526.233,448.652 520.878,448.652 520.878,396.981 
		526.233,396.981 526.233,385.986 501.668,385.986 	"/>
	<path fill="#282C37" d="M616.727,385.986h-21.241c-1.73,0-3.393,0.266-5.028,0.82c-4.812,1.929-7.252,4.818-7.252,8.594v54.833
		c0,1.464,0.433,2.854,1.328,4.188c2.545,3.466,6.231,5.227,10.952,5.227h21.241c1.822,0,3.509-0.283,5.021-0.853
		c4.818-1.903,7.258-4.781,7.258-8.562v-9.414h-13.861v5.967c0,0.445,0,1.618-3.396,1.866h-11.174
		c-3.509-0.248-3.509-1.421-3.509-1.866v-47.939c0-0.443,0-1.624,3.396-1.864l11.174-0.007c3.508,0.247,3.508,1.428,3.508,1.871
		v5.968h13.861V395.4c0-1.452-0.407-2.823-1.278-4.194C625.146,387.747,621.445,385.986,616.727,385.986z"/>
	<rect x="315.505" y="417.137" fill="#282C37" width="11.156" height="10.995"/>
	<rect x="682.369" y="417.137" fill="#282C37" width="11.156" height="10.995"/>
</g>
</svg>
