<?xml version="1.0" encoding="utf-8"?>
<!-- Generator: Adobe Illustrator 16.0.0, SVG Export Plug-In . SVG Version: 6.00 Build 0)  -->
<!DOCTYPE svg PUBLIC "-//W3C//DTD SVG 1.1//EN" "http://www.w3.org/Graphics/SVG/1.1/DTD/svg11.dtd">
<svg version="1.1" xmlns="http://www.w3.org/2000/svg" xmlns:xlink="http://www.w3.org/1999/xlink" x="0px" y="0px" width="2000px"
	 height="1000px" viewBox="0 0 2000 1000" enable-background="new 0 0 2000 1000" xml:space="preserve">
<g id="Layer_2">
</g>
<g id="Layer_1">
	<g id="FxfoXH_2_">
		<g>
			<path fill-rule="evenodd" clip-rule="evenodd" fill="#FFFFFF" d="M859.914,465.042c1.866,0,3.24,0,4.616,0
				c32.818,0,65.638-0.006,98.458,0.017c1.746,0,3.529,0.074,5.237,0.406c3.555,0.69,5.821,2.888,6.579,6.457
				c0.289,1.363,0.43,2.785,0.433,4.179c0.026,19.458,0.034,38.915-0.014,58.372c-0.004,1.732-0.284,3.508-0.728,5.186
				c-0.71,2.675-2.529,4.529-5.214,5.172c-2.023,0.486-4.155,0.725-6.238,0.728c-32.818,0.044-65.641,0.031-98.459,0.031
				c-1.379,0-2.759,0-4.501,0c-0.065,1.819-0.165,3.301-0.165,4.782c-0.008,49.229-0.005,98.457-0.005,147.688
				c0,0.938-0.03,1.875,0.003,2.812c0.181,5.055-1.937,8.561-6.421,11.127c-27.14,15.541-54.19,31.23-81.271,46.869
				C683.879,809.881,595.51,860.855,507.24,911.998c-5.752,3.334-10.396,3.414-16.191,0.057
				C379.957,847.73,268.773,783.57,157.606,719.373c-4.361-2.52-8.664-5.148-13.106-7.516c-4.425-2.361-6.375-5.982-6.301-10.865
				c0.014-0.938,0.002-1.875,0.002-2.812c0-116.98-0.049-233.957,0.081-350.936c0.012-10.63-1.451-20.972-3.269-31.368
				c-2.598-14.854-8.85-28.342-15.229-41.76c-12.647-26.599-28.719-51.019-47.974-73.291c-6.815-7.885-14.233-15.245-21.24-22.967
				c-11.05-12.182-23.326-23.033-35.958-33.507c-3.43-2.844-5.321-6.334-3.647-10.783c0.625-1.66,1.87-3.258,3.219-4.446
				c13.125-11.566,27.893-20.539,44.001-27.292c19.342-8.109,39.518-13.142,60.303-15.693c7.319-0.898,14.69-1.628,22.054-1.826
				c7.128-0.191,14.296,0.161,21.416,0.694c20.835,1.56,41.162,6.335,61.657,10.043c15.466,2.798,30.612,6.767,45.336,12.297
				c10.871,4.083,21.364,8.975,31.486,14.674c12.856,7.238,26.158,13.757,38.032,22.602c7.129,5.31,13.923,11.077,20.766,16.763
				c2.767,2.299,3.55,2.58,6.823,0.696c12.18-7.012,24.346-14.051,36.519-21.079c30.125-17.393,60.271-34.752,90.356-52.216
				c4.336-2.517,8.232-2.395,12.521,0.09c42.264,24.48,84.574,48.882,126.871,73.303c0.912,0.528,1.804,1.112,2.767,1.524
				c1.497,0.638,2.928,0.599,4.208-0.645c16.043-15.587,34.953-26.978,54.396-37.725c17.386-9.61,35.154-18.233,54.345-23.482
				c11.046-3.022,22.273-5.434,33.503-7.721c12.269-2.497,24.597-4.753,36.962-6.712c15.405-2.44,30.896-3.869,46.544-2.885
				c28.309,1.779,55.627,7.69,81.586,19.291c14.312,6.395,27.304,14.873,39.325,24.968c4.671,3.923,5.556,10.977-0.277,15.619
				c-10.734,8.542-20.84,17.818-30.497,27.554c-5.191,5.233-9.962,10.882-15.013,16.256c-8.03,8.539-15.924,17.177-23.056,26.507
				c-20.484,26.805-37.044,55.794-48.368,87.608c-2.412,6.779-3.392,14.09-4.773,21.206c-0.959,4.935-1.469,9.958-2.207,14.938
				c-0.134,0.922-0.231,1.907-0.629,2.726c-1.561,3.207-1.223,6.614-1.223,9.987c-0.006,36.335-0.003,72.672-0.003,109.008
				C859.914,461.6,859.914,462.996,859.914,465.042z M119.419,147.199c-0.15,0.302-0.302,0.604-0.452,0.907
				c0.614,0.771,1.172,1.597,1.852,2.304c9.59,9.97,18.756,20.308,27.279,31.209c30.79,39.382,53.156,82.867,64.262,131.847
				c4.7,20.735,7.571,41.637,7.537,62.982c-0.146,92.828-0.042,185.657-0.144,278.487c-0.003,3.295,0.925,5.377,3.862,6.643
				c0.427,0.186,0.815,0.461,1.221,0.693c13.098,7.52,26.212,15.01,39.289,22.568c16.117,9.314,32.187,18.713,48.305,28.027
				c19.974,11.537,39.989,23.01,59.966,34.543c18.255,10.537,36.494,21.104,54.713,31.703c2.808,1.633,5.344,1.705,8.173-0.068
				c13.226-8.295,25.757-17.537,37.641-27.633c6.243-5.303,12.412-10.736,18.174-16.547c5.433-5.475,10.405-11.424,15.375-17.336
				c13.453-16.006,25.185-33.223,35.454-51.424c9.855-17.469,18.186-35.658,24.929-54.545c2.673-7.488,5.069-15.086,7.31-22.717
				c3.93-13.374,6.725-27.013,8.912-40.776c2.245-14.123,3.693-28.335,3.729-42.628c0.02-8.056-0.788-16.116-1.314-24.169
				c-0.889-13.581-3.348-26.938-6.164-40.217c-3.502-16.507-8.437-32.601-14.359-48.417c-6.548-17.475-14.462-34.289-23.613-50.521
				c-7.946-14.1-16.896-27.559-26.812-40.361c-10.483-13.537-21.547-26.551-34.466-37.872
				c-15.359-13.458-31.604-25.724-49.05-36.366c-0.912-0.557-2.007-0.813-3.648-1.458c0,2.165,0,3.647,0,5.129
				c0,129.516,0.003,259.031-0.029,388.546c-0.001,2.318-0.243,4.68-0.727,6.945c-0.611,2.854-2.644,4.547-5.381,5.492
				c-2.893,1.002-5.561,0.418-8.081-1.043c-20.162-11.693-40.285-23.455-60.481-35.09c-3.99-2.299-5.829-5.564-5.849-10.033
				c-0.005-1.172-0.005-2.344-0.005-3.518c0-97.868,0.008-195.737-0.036-293.606c-0.001-3.261-0.312-6.559-0.849-9.777
				c-2.458-14.735-8.098-28.294-15.502-41.185c-9.651-16.803-22.828-30.635-37.463-42.997
				c-29.767-25.142-64.611-39.17-102.78-45.521c-17.527-2.917-35.201-3.326-52.907-2.988
				C131.331,146.526,125.376,146.929,119.419,147.199z M778.1,464.862c0.063-1.233,0.152-2.158,0.152-3.084
				c0.008-38.555-0.018-77.111,0.065-115.666c0.003-2.466-0.853-3.879-2.893-5.043c-10.574-6.035-21.101-12.152-31.649-18.232
				c-13.081-7.541-26.176-15.058-39.251-22.612c-11.05-6.385-22.064-12.827-33.117-19.209
				c-18.046-10.423-36.115-20.807-54.16-31.229c-18.047-10.423-36.078-20.875-54.116-31.312c-2.331-1.348-4.646-2.722-7.011-4.009
				c-1.056-0.573-2.215-1.398-3.518,0.036c67.11,70.333,105.842,153.875,116.964,250.361
				C705.835,464.862,741.764,464.862,778.1,464.862z M566.616,779.459c2.326,1.119,3.595,0.146,4.876-0.592
				c10.548-6.082,21.091-12.178,31.63-18.277c14.797-8.562,29.583-17.143,44.388-25.695c21.288-12.299,42.591-24.574,63.88-36.871
				c8.011-4.627,15.982-9.312,23.999-13.93c13.287-7.656,26.576-15.309,39.911-22.881c2.197-1.246,3.018-2.773,3.012-5.336
				c-0.079-35.51-0.052-71.02-0.06-106.532c0-1.135-0.106-2.268-0.16-3.338c-4.719-0.787-106.234-0.56-108.764,0.229
				C658.939,634.256,625.148,712.096,566.616,779.459z M881.818,147.602c-1.409-0.202-1.86-0.287-2.315-0.329
				c-12.857-1.188-25.739-1.055-38.622-0.708c-26.211,0.703-51.623,5.503-76.108,14.949c-22.246,8.583-42.783,20.086-60.651,36.058
				c-3.623,3.239-3.567,3.96,0.729,6.502c0.403,0.239,0.81,0.473,1.217,0.707c9.632,5.56,19.268,11.119,28.899,16.68
				c21.698,12.529,43.404,25.044,65.086,37.607c2.898,1.681,4.984,1.955,6.725-2.174c5.366-12.746,11.842-24.95,18.954-36.812
				c15.127-25.228,33.079-48.276,53.518-69.408C880.014,149.885,880.665,148.99,881.818,147.602z"/>
			<path fill-rule="evenodd" clip-rule="evenodd" fill="#FFFFFF" d="M59.408,468.459c25.583,2.647,40.295,17.63,42.824,42.964
				c-2.709,25.48-17.658,40.244-43.085,42.703c-25.57-2.796-39.987-17.619-42.65-42.789
				C19.089,485.956,33.871,471.046,59.408,468.459z"/>
		</g>
	</g>
	<g id="FxfoXH_1_">
		<g>
			<path fill-rule="evenodd" clip-rule="evenodd" fill="#FBAC44" d="M1859.914,465.042c1.867,0,3.24,0,4.617,0
				c32.818,0,65.637-0.006,98.457,0.017c1.746,0,3.529,0.074,5.238,0.406c3.555,0.69,5.82,2.888,6.578,6.457
				c0.289,1.363,0.43,2.785,0.434,4.179c0.025,19.458,0.033,38.915-0.014,58.372c-0.004,1.732-0.285,3.508-0.729,5.186
				c-0.709,2.675-2.529,4.529-5.213,5.172c-2.023,0.486-4.156,0.725-6.238,0.728c-32.818,0.044-65.641,0.031-98.459,0.031
				c-1.379,0-2.76,0-4.502,0c-0.064,1.819-0.164,3.301-0.164,4.782c-0.008,49.229-0.006,98.457-0.006,147.688
				c0,0.938-0.029,1.875,0.004,2.812c0.18,5.055-1.938,8.561-6.422,11.127c-27.139,15.541-54.189,31.23-81.271,46.869
				c-88.346,51.014-176.715,101.988-264.984,153.131c-5.752,3.334-10.396,3.414-16.19,0.057
				c-111.093-64.324-222.276-128.484-333.443-192.682c-4.361-2.52-8.663-5.148-13.106-7.516c-4.425-2.361-6.374-5.982-6.301-10.865
				c0.015-0.938,0.003-1.875,0.003-2.812c0-116.98-0.049-233.957,0.081-350.936c0.012-10.63-1.451-20.972-3.269-31.368
				c-2.599-14.854-8.85-28.342-15.229-41.76c-12.646-26.599-28.719-51.019-47.975-73.291c-6.814-7.885-14.232-15.245-21.239-22.967
				c-11.05-12.182-23.325-23.033-35.958-33.507c-3.43-2.844-5.322-6.334-3.648-10.783c0.625-1.66,1.871-3.258,3.219-4.446
				c13.126-11.566,27.893-20.539,44.002-27.292c19.342-8.109,39.518-13.142,60.303-15.693c7.32-0.898,14.691-1.628,22.055-1.826
				c7.129-0.191,14.296,0.161,21.416,0.694c20.835,1.56,41.162,6.335,61.657,10.043c15.466,2.798,30.612,6.767,45.337,12.297
				c10.871,4.083,21.363,8.975,31.485,14.674c12.856,7.238,26.157,13.757,38.032,22.602c7.129,5.31,13.923,11.077,20.766,16.763
				c2.767,2.299,3.55,2.58,6.822,0.696c12.18-7.012,24.346-14.051,36.52-21.079c30.125-17.393,60.271-34.752,90.355-52.216
				c4.336-2.517,8.232-2.395,12.521,0.09c42.264,24.48,84.574,48.882,126.871,73.303c0.912,0.528,1.803,1.112,2.766,1.524
				c1.498,0.638,2.928,0.599,4.209-0.645c16.043-15.587,34.953-26.978,54.395-37.725c17.387-9.61,35.154-18.233,54.346-23.482
				c11.045-3.022,22.273-5.434,33.502-7.721c12.27-2.497,24.598-4.753,36.963-6.712c15.404-2.44,30.895-3.869,46.543-2.885
				c28.309,1.779,55.627,7.69,81.586,19.291c14.312,6.395,27.305,14.873,39.326,24.968c4.67,3.923,5.555,10.977-0.277,15.619
				c-10.734,8.542-20.84,17.818-30.498,27.554c-5.191,5.233-9.961,10.882-15.012,16.256c-8.031,8.539-15.924,17.177-23.057,26.507
				c-20.484,26.805-37.043,55.794-48.367,87.608c-2.412,6.779-3.393,14.09-4.773,21.206c-0.959,4.935-1.469,9.958-2.207,14.938
				c-0.135,0.922-0.232,1.907-0.629,2.726c-1.561,3.207-1.223,6.614-1.223,9.987c-0.006,36.335-0.004,72.672-0.004,109.008
				C1859.914,461.6,1859.914,462.996,1859.914,465.042z M1119.42,147.199c-0.15,0.302-0.302,0.604-0.451,0.907
				c0.613,0.771,1.172,1.597,1.852,2.304c9.59,9.97,18.756,20.308,27.279,31.209c30.789,39.382,53.156,82.867,64.262,131.847
				c4.701,20.735,7.572,41.637,7.537,62.982c-0.146,92.828-0.042,185.657-0.143,278.487c-0.004,3.295,0.924,5.377,3.861,6.643
				c0.428,0.186,0.814,0.461,1.221,0.693c13.099,7.52,26.213,15.01,39.289,22.568c16.117,9.314,32.188,18.713,48.306,28.027
				c19.974,11.537,39.989,23.01,59.966,34.543c18.256,10.537,36.494,21.104,54.714,31.703c2.808,1.633,5.344,1.705,8.173-0.068
				c13.227-8.295,25.758-17.537,37.642-27.633c6.243-5.303,12.411-10.736,18.174-16.547c5.433-5.475,10.405-11.424,15.376-17.336
				c13.453-16.006,25.184-33.223,35.453-51.424c9.855-17.469,18.186-35.658,24.93-54.545c2.672-7.488,5.068-15.086,7.309-22.717
				c3.93-13.374,6.725-27.013,8.912-40.776c2.246-14.123,3.693-28.335,3.73-42.628c0.02-8.056-0.789-16.116-1.314-24.169
				c-0.889-13.581-3.348-26.938-6.164-40.217c-3.502-16.507-8.438-32.601-14.359-48.417c-6.549-17.475-14.463-34.289-23.613-50.521
				c-7.947-14.1-16.896-27.559-26.812-40.361c-10.482-13.537-21.547-26.551-34.466-37.872
				c-15.358-13.458-31.604-25.724-49.05-36.366c-0.912-0.557-2.008-0.813-3.648-1.458c0,2.165,0,3.647,0,5.129
				c0,129.516,0.002,259.031-0.029,388.546c-0.002,2.318-0.243,4.68-0.728,6.945c-0.611,2.854-2.644,4.547-5.382,5.492
				c-2.893,1.002-5.561,0.418-8.08-1.043c-20.162-11.693-40.285-23.455-60.48-35.09c-3.99-2.299-5.83-5.564-5.85-10.033
				c-0.006-1.172-0.006-2.344-0.006-3.518c0-97.868,0.009-195.737-0.035-293.606c-0.002-3.261-0.312-6.559-0.85-9.777
				c-2.458-14.735-8.098-28.294-15.502-41.185c-9.651-16.803-22.828-30.635-37.463-42.997
				c-29.767-25.142-64.611-39.17-102.779-45.521c-17.527-2.917-35.201-3.326-52.908-2.988
				C1131.331,146.526,1125.377,146.929,1119.42,147.199z M1778.1,464.862c0.064-1.233,0.152-2.158,0.152-3.084
				c0.008-38.555-0.018-77.111,0.066-115.666c0.002-2.466-0.854-3.879-2.893-5.043c-10.574-6.035-21.102-12.152-31.65-18.232
				c-13.08-7.541-26.176-15.058-39.25-22.612c-11.051-6.385-22.064-12.827-33.117-19.209c-18.047-10.423-36.115-20.807-54.16-31.229
				c-18.047-10.423-36.078-20.875-54.117-31.312c-2.33-1.348-4.646-2.722-7.01-4.009c-1.057-0.573-2.215-1.398-3.518,0.036
				c67.109,70.333,105.842,153.875,116.963,250.361C1705.836,464.862,1741.764,464.862,1778.1,464.862z M1566.617,779.459
				c2.326,1.119,3.594,0.146,4.875-0.592c10.549-6.082,21.092-12.178,31.631-18.277c14.797-8.562,29.582-17.143,44.387-25.695
				c21.289-12.299,42.592-24.574,63.881-36.871c8.01-4.627,15.982-9.312,23.998-13.93c13.287-7.656,26.576-15.309,39.912-22.881
				c2.197-1.246,3.018-2.773,3.012-5.336c-0.08-35.51-0.053-71.02-0.061-106.532c0-1.135-0.105-2.268-0.16-3.338
				c-4.719-0.787-106.234-0.56-108.764,0.229C1658.939,634.256,1625.148,712.096,1566.617,779.459z M1881.818,147.602
				c-1.408-0.202-1.859-0.287-2.314-0.329c-12.857-1.188-25.74-1.055-38.623-0.708c-26.211,0.703-51.623,5.503-76.107,14.949
				c-22.246,8.583-42.783,20.086-60.652,36.058c-3.623,3.239-3.566,3.96,0.73,6.502c0.402,0.239,0.809,0.473,1.217,0.707
				c9.631,5.56,19.268,11.119,28.898,16.68c21.699,12.529,43.404,25.044,65.086,37.607c2.898,1.681,4.984,1.955,6.725-2.174
				c5.367-12.746,11.842-24.95,18.955-36.812c15.127-25.228,33.078-48.276,53.518-69.408
				C1880.014,149.885,1880.666,148.99,1881.818,147.602z"/>
			<path fill-rule="evenodd" clip-rule="evenodd" fill="#FBAC44" d="M1059.408,468.459c25.584,2.647,40.295,17.63,42.824,42.964
				c-2.709,25.48-17.658,40.244-43.085,42.703c-25.569-2.796-39.987-17.619-42.649-42.789
				C1019.09,485.956,1033.871,471.046,1059.408,468.459z"/>
		</g>
	</g>
</g>
</svg>
