<?xml version="1.0" encoding="utf-8"?>
<!-- Generator: Adobe Illustrator 16.0.0, SVG Export Plug-In . SVG Version: 6.00 Build 0)  -->
<!DOCTYPE svg PUBLIC "-//W3C//DTD SVG 1.1//EN" "http://www.w3.org/Graphics/SVG/1.1/DTD/svg11.dtd">
<svg version="1.1" id="Layer_1" xmlns="http://www.w3.org/2000/svg" xmlns:xlink="http://www.w3.org/1999/xlink" x="0px" y="0px"
	 width="1000px" height="500px" viewBox="0 0 1000 500" enable-background="new 0 0 1000 500" xml:space="preserve">
<g>
	<path fill="#FFFFFF" d="M405.921,198.182c-5.89,29.374-18.74,56.435-26.942,85.143c-2.096,7.342-4.574,14.438-7.479,21.502
		c-1.547,3.819-3.59,7.351-6.084,10.624c-0.339-0.852-0.766-1.908-1.31-3.23c-15.06-36.665-13.231-78.183-31.396-114.102
		c-7.16-14.154-36.67-17.122-32.239,4.255c5.604,27.027,5.417,70.669-11.415,93.812c-11.802,16.236-33.586,24.665-54.134,23.327
		c26.051-20.589,45.177-49.205,44.069-77.963c-1.8-46.729-46.376-65.874-85.336-45.271c-38.832,20.537-45.744,84.164-24.188,119.708
		c-0.344,0.088-0.693,0.188-1.034,0.271c-50.887,12.39-31.817-78.569-29.265-105.306c2.934-30.792,6.55-61.539,10.6-92.206
		c2.626-19.85-30.206-29.943-33.065-8.316c-3.556,26.921-8.223,55.018-11.62,83.279c-4.823-2.488-10.35-4.347-16.678-5.404
		c-46.781-7.815-73.444,31.185-82.967,72.019c-8.179,35.093,0.331,86.175,41.717,93.516c27.933,4.953,48.065-11.635,61.986-33.453
		c15.281,32.975,52.319,35.46,87.93,21.202c29.377,15.818,68.338,13.104,96.525-3.218c15.403-8.918,26.075-22.867,33.041-39.146
		c4.237,18.676,10.393,41.146,28.891,49.483c24.464,11.022,41.096-14.12,49.024-33.39c14.081-34.232,27.152-72.549,34.432-108.821
		C442.938,186.796,410.215,176.788,405.921,198.182z M70.555,312.973c-26.202,24.355-34.575-9.12-34.301-29.854
		c0.285-21.85,10.748-48.455,30.166-59.835c31.373-18.375,35.588,18.928,30.86,38.863C91.824,281.098,85.302,299.268,70.555,312.973
		z M197.313,301.506c-12.696-15.396-5.924-41.905,0.979-57.928c9.786-22.738,51.076-34.329,46.559,1.755
		c-3.009,24.087-23.309,44.985-45.777,58.158C198.474,302.845,197.879,302.193,197.313,301.506z"/>
	<path fill="#FFFFFF" d="M960.659,187.872c-18.4,7.034-29.057,28.635-36.95,48.625c-3.702-33.324-13.757-59.398-38.452-47.719
		c-14.156,6.695-23.667,22.99-30.837,39.856c0.199-8.456,0.398-16.91,0.597-25.366c0.449-18.967-28.793-21.855-33.213-4.021
		c-9.259,37.369-20.376,78.146-41.845,110.836c-0.843-6.467-0.757-13.124-0.728-19.542c0.126-29.242,5.206-58.583,10.373-87.273
		c3.587-19.917-25.979-19.661-32.962-3.751c-7.312-6.331-16.959-10.873-29.25-12.926c-45.157-7.542-70.173,39.946-78.272,76.332
		c-1.98,8.892-2.323,19.957-0.894,31.29c-0.06,0.107-0.126,0.208-0.184,0.316c-0.198,0.377-0.411,0.745-0.615,1.118
		c-0.273,0.448-0.648,1.061-0.86,1.377c-0.672,1.007-1.388,1.979-2.132,2.931c-0.914,0.578-1.81,1.267-2.675,2.087
		c-11.818,11.208-31.585,17.28-50.444,16.632c0.662-0.604,1.311-1.209,1.932-1.811c26.623-25.803,57.501-75.152,28.019-110.291
		c-30.855-36.773-76.274-17.515-97.68,17.783c-15.833,26.119-18.579,64.979-2.352,92.005c-22.646,3.85-32.029-10.45-32.741-33.98
		c-1.132-37.428,3.133-75.842,8.676-113.92c32.594-1.109,66.228-2.3,79.264-2.442c9.422-0.034,14.126-7.382,14.104-14.689
		c0.012-7.308-4.682-14.576-14.104-14.474c-11.62,0.041-42.936-0.01-74.408-0.204c2.465-15.693,4.953-31.266,7.168-46.622
		c2.888-20.044-28.741-31.367-31.937-9.205c-2.664,18.479-5.329,37.005-7.838,55.564c-22.078-0.229-40.278-0.552-46.103-0.992
		c-20.004-1.51-31.487,33.851,0,34.996c5.066,0.185,21.426-0.233,41.829-0.874c-3.715,30.471-6.758,61.013-8.427,91.577
		c-1.492,27.414-0.353,55.028,19.434,76.148c19.004,20.278,49.667,17.047,76.291,5.798c34.146,15.731,78.592,11.477,108.022-11.482
		c8.221,13.567,20.452,23.144,37.122,23.034c23.254-0.154,38.96-10.533,50.193-25.715c4.501,16.253,13.769,26.116,30.86,22.258
		c19.909-4.487,31.532-26.537,39.783-43.469c-0.223,9.488-0.447,18.977-0.669,28.466c-0.45,19.184,28.086,21.536,33.213,4.021
		c10.296-35.178,20.896-72.699,37.897-105.6c0.586,6.383,0.679,12.824,0.692,19.206c0.057,26.674,0.12,53.348,0.183,80.027
		c0.04,19.063,27.79,21.667,33.213,4.021c10.076-32.77,20.137-68.293,36.035-99.407c0.179,6.786-0.141,13.624-0.185,20.358
		c-0.16,25.342-0.313,50.683-0.474,76.03c-0.137,21.804,34.016,20.061,34.142-0.08C992.59,315.854,1008.141,169.719,960.659,187.872
		z M553.019,241.567c8.851-17.697,51.861-39.147,46.553,3.321c-3.031,24.24-24.477,45.708-46.873,58.876
		c-3.706-3.82-6.65-8.409-8.555-13.827C538.613,274.2,546.097,255.409,553.019,241.567z M679.314,276.809
		c0.798-20.75,12.999-49.446,35.008-55.125c30.622-7.902,31.396,21.194,26.844,41.708c-4.513,16.621-9.107,35.506-21.142,48.187
		C693.651,339.361,678.471,298.687,679.314,276.809z M970.889,217.963C971.852,216.667,971.756,217.091,970.889,217.963
		L970.889,217.963z"/>
	<rect x="445.029" y="379.421" fill="#FFFFFF" width="9.997" height="58.326"/>
	<polygon fill="#FFFFFF" points="492.682,403.321 485.356,379.421 475.451,379.421 475.451,437.747 485.425,437.747 
		485.425,412.252 492.784,437.747 502.774,437.747 502.774,379.421 492.682,379.421 	"/>
	<path fill="#FFFFFF" d="M544.365,379.421h-15.009c-3.399,0-6.157,2.751-6.157,6.174v45.995c0,3.315,2.758,6.157,6.157,6.157h15.009
		c3.339,0,6.158-2.842,6.158-6.157v-17.692h-10.076v13.757h-7.257v-38.226h7.257v14.16h10.076v-17.994
		C550.524,382.172,547.704,379.421,544.365,379.421z"/>
	<rect x="409.162" y="403.589" fill="#FFFFFF" width="9.991" height="9.99"/>
	<rect x="576.406" y="403.589" fill="#FFFFFF" width="9.984" height="9.99"/>
</g>
</svg>
