<svg xmlns="http://www.w3.org/2000/svg" width="4000" height="1000" viewBox="0 0 4000 1000"><path fill="#FFF" d="M85.038 263.438h828.78c32.642 0 59.126-26.494 59.126-59.19s-26.484-59.188-59.127-59.188H85.037c-32.624 0-59.126 26.494-59.126 59.19s26.503 59.188 59.128 59.188zm828.78 473.578H85.037c-32.625 0-59.127 26.495-59.127 59.188 0 32.695 26.503 59.188 59.128 59.188h828.78c32.642 0 59.126-26.493 59.126-59.188 0-32.693-26.485-59.188-59.127-59.188zm0-295.952H85.037c-32.625 0-59.127 26.493-59.127 59.132 0 32.693 26.503 59.25 59.128 59.25h828.78c32.642 0 59.126-26.557 59.126-59.25 0-32.637-26.485-59.132-59.127-59.132z"/><path fill="#252525" d="M1084.602 263.438h828.78c32.644 0 59.127-26.494 59.127-59.19s-26.484-59.188-59.128-59.188h-828.78c-32.625 0-59.127 26.494-59.127 59.19s26.502 59.188 59.127 59.188zm828.78 473.578h-828.78c-32.625 0-59.127 26.495-59.127 59.188 0 32.695 26.502 59.188 59.127 59.188h828.78c32.644 0 59.127-26.493 59.127-59.188 0-32.693-26.486-59.188-59.128-59.188zm0-295.952h-828.78c-32.625 0-59.127 26.493-59.127 59.132 0 32.693 26.502 59.25 59.127 59.25h828.78c32.644 0 59.127-26.557 59.127-59.25 0-32.637-26.486-59.132-59.128-59.132z" opacity=".4"/><path fill="#FFF" d="M2778.427 713.894l-498.52-498.52c-19.625-19.626-51.504-19.63-71.137.002-19.666 19.666-19.697 51.58-.072 71.205l498.52 498.522c19.637 19.636 51.54 19.593 71.206-.073 19.63-19.634 19.638-51.502.003-71.136z"/><path fill="#FFF" d="M2778.38 215.374c-19.63-19.632-51.51-19.627-71.134-.003l-498.52 498.522c-19.637 19.636-19.63 51.502.003 71.135 19.665 19.666 51.568 19.71 71.204.073l498.52-498.52c19.625-19.625 19.593-51.54-.073-71.206z"/><path opacity=".4" fill="#252525" d="M3564.8 500.25l213.67-213.67c19.625-19.625 19.593-51.54-.073-71.206-19.633-19.632-51.512-19.627-71.136-.003l-213.67 213.67-213.67-213.67c-19.624-19.624-51.503-19.628-71.135.004-19.666 19.666-19.698 51.58-.073 71.205l213.67 213.67L3208.74 713.89c-19.637 19.636-19.63 51.502.003 71.135 19.666 19.666 51.57 19.71 71.205.073l213.643-213.643L3707.234 785.1c19.636 19.636 51.54 19.593 71.205-.073 19.633-19.63 19.64-51.5.004-71.134L3564.8 500.25z"/></svg>