<svg xmlns="http://www.w3.org/2000/svg" width="3300" height="1100" viewBox="0 0 3300 1100"><g fill-rule="evenodd" clip-rule="evenodd" fill="#E2DDD5"><path d="M3026.495 407.937c-32.994 0-65.987.01-98.98-.003-19.296-.008-32.375-12.983-32.382-32.208-.02-66.488-.023-132.976.002-199.463.007-18.907 13.165-32.117 32.018-32.125 66.654-.03 133.31-.03 199.963 0 18.61.008 31.81 13.217 31.814 31.76.018 66.822.02 133.643 0 200.464-.007 18.338-13.175 31.55-31.453 31.566-33.66.03-67.322.01-100.982.01zM2925.81 256.143v5.387c0 34.322-.007 68.643.003 102.964.003 9.647 3.17 12.785 12.904 12.786 58.812.007 117.627.006 176.44 0 10.08 0 13.133-3.033 13.135-13.04.01-34.155.004-68.31.004-102.465v-5.532h-22.234c12.42 53.773-27.673 98.273-73.624 100.774-24.047 1.31-45.076-6.117-62.158-23.148-21.64-21.574-28.28-47.8-22.08-77.727h-22.39zm152 20.03c.078-27.677-22.592-50.548-50.382-50.826-27.87-.28-50.87 22.51-51.08 50.608-.204 27.547 22.62 50.595 50.358 50.852 27.8.256 51.023-22.755 51.103-50.633zm25.086-50.937c4.83 0 9.66.066 14.488-.016 7.108-.12 10.812-3.725 10.883-10.764.098-9.658.1-19.318-.002-28.977-.072-6.79-3.776-10.558-10.486-10.634-9.825-.11-19.652-.113-29.477.002-6.438.076-10.312 3.877-10.394 10.237-.127 9.99-.13 19.985.002 29.976.08 6.14 3.882 9.937 9.996 10.13 4.992.16 9.99.034 14.988.046zM2086.677 217.253c-6.67 10.413-16.524 17.62-28.408 23.1h29.14l.59 1.018c-5.09 3.557-10.16 7.14-15.28 10.654-1.505 1.033-3.034 2.308-4.736 2.734-12.015 3.003-15.378 12.184-19.143 22.836-19.654 55.626-57.43 93.82-115.217 107.43-60.21 14.18-113.114-2.7-156.978-46.717-.323-.324-.528-.768-1.545-2.284 29.23 10.684 57.408 10.773 86.285-.74-24.194-9.498-37.79-26.413-40.344-51.914l21.87 5.413.598-1.167c-23.714-15.73-32.758-37.38-27.155-65.26l20.7 12.445c.354-.405.71-.81 1.063-1.217-10.348-13.58-14.39-28.82-11.673-45.517 2.113-12.98 8.318-24.162 16.344-30.982 20.414 42.81 52.68 72.348 97.957 87.914 1.517-18.14 8.616-32.82 22.828-43.71 26.06-19.968 64.697-13.422 82.434 14.163 2.277 3.544 4.623 5.107 8.8 4.676 10.53-1.09 21.087-1.92 31.87-2.873zM1381.002 157.03c45.984 0 91.97-.003 137.954 0 10.312 0 13.014 2.703 13.015 13.004.003 65.978.003 131.957 0 197.934 0 10.3-2.702 13-13.018 13-91.97.004-183.938.004-275.908 0-10.312 0-13.014-2.7-13.015-13.004-.003-65.978-.003-131.956 0-197.934 0-10.3 2.702-13 13.018-13 45.984-.004 91.97 0 137.954 0zm117.022 20.34H1263.91c1.585 1.727 2.614 2.934 3.73 4.054 18.595 18.646 37.2 37.282 55.805 55.917 14.956 14.98 30.003 29.867 44.824 44.977 4.537 4.627 9.767 7.89 15.927 5.792 4.458-1.518 8.61-4.906 12.04-8.32 32.95-32.81 65.72-65.8 98.528-98.746.994-1 1.876-2.11 3.26-3.675zm-1.03 183.25l-77.685-77.314c-4.353 4.07-9.11 8.714-14.07 13.126-18.77 16.69-29.743 16.674-48.536-.06-5.05-4.496-9.917-9.2-13.858-12.87l-77.552 77.118h231.7zm-169.772-91.495l-76.84-76.71V345.74l76.84-76.613zm107.603-.405l76.78 76.688v-153.33l-76.78 76.642zM373.987 211.703c.142 13.205-2.932 25.78-8.093 37.79-23.59 54.895-47.338 109.72-71.027 164.574-2.73 6.325-5.2 8.047-11.08 8.082-5.654.033-8.563-3.007-10.695-7.985-21.3-49.742-42.676-99.45-64.206-149.094-5.214-12.02-11.685-23.425-14.31-36.56-10.063-50.334 26.035-100.525 77.02-106.634 55.11-6.602 102.415 34.9 102.39 89.827zm-50.994-.258c-.016-21.686-17.648-39.38-39.298-39.438-21.95-.058-39.704 17.633-39.688 39.547.016 21.686 17.648 39.38 39.298 39.438 21.95.06 39.705-17.632 39.688-39.547zM797.733 342.746c34.02-39.768 60.786-83.25 80.435-131.858-5.62-2.127-10.984-4.1-16.303-6.186-8.402-3.297-11.982-10.932-8.854-19.357 7.572-20.395 15.214-40.765 22.962-61.094 3.74-9.813 10.615-12.25 20.726-9.284 15.424 4.524 27.52 13.634 37.98 25.333 6.39 7.146 8.492 14.957 5.745 24.768-5.796 20.7-13.862 40.453-22.375 60.114-21.874 50.522-50.077 97.245-84.502 140.12-13.103 16.318-27.52 31.592-41.555 47.145-3.537 3.92-7.774 7.26-11.945 10.545-4.99 3.93-11.068 3.778-16.745 2.645-17.572-3.508-32.546-11.964-44.872-25.028-4.9-5.195-5.122-13.895.02-19.578 15.273-16.88 30.658-33.656 46.137-50.346 4.973-5.362 12.705-5.447 18.975-.563 2.353 1.833 4.488 3.945 6.717 5.937 2.223 1.986 4.44 3.98 7.456 6.686zM2436.3 274.885h-27.604v-47.63h28.235c0-12.864-.133-25.14.04-37.412.152-10.742 3.147-20.677 9.626-29.376 8.29-11.13 20.057-16.996 33.273-17.885 17.353-1.168 34.844-.287 52.64-.287v45.036h-17.72c-3.666 0-7.332-.05-10.997.007-7 .11-11.52 3.803-11.87 10.85-.458 9.11-.112 18.26-.112 28.032h41.775l-4.858 47.67h-37.797v132.26h-54.63V274.886z"/></g><g fill-rule="evenodd" clip-rule="evenodd" fill="#FFF"><path d="M3026.495 957.938c-32.994 0-65.987.008-98.98-.004-19.296-.008-32.375-12.982-32.382-32.207-.02-66.488-.023-132.977.002-199.464.007-18.907 13.165-32.117 32.018-32.126 66.654-.028 133.31-.03 199.963 0 18.61.01 31.81 13.22 31.814 31.762.018 66.82.02 133.642 0 200.462-.007 18.338-13.175 31.55-31.453 31.566-33.66.03-67.322.01-100.982.01zM2925.81 806.144v5.387c0 34.322-.007 68.645.003 102.965.003 9.648 3.17 12.785 12.904 12.787 58.812.006 117.627.006 176.44 0 10.08-.002 13.133-3.033 13.135-13.04.01-34.155.004-68.31.004-102.466v-5.53h-22.234c12.42 53.772-27.673 98.272-73.624 100.772-24.047 1.31-45.076-6.117-62.158-23.148-21.64-21.572-28.28-47.797-22.08-77.726h-22.39zm152 20.03c.078-27.678-22.592-50.55-50.382-50.826-27.87-.28-50.87 22.51-51.08 50.607-.204 27.547 22.62 50.596 50.358 50.852 27.8.257 51.023-22.754 51.103-50.633zm25.086-50.938c4.83 0 9.66.066 14.488-.016 7.108-.12 10.812-3.725 10.883-10.764.098-9.658.1-19.318-.002-28.977-.072-6.79-3.776-10.558-10.486-10.634-9.825-.11-19.652-.113-29.477.002-6.438.076-10.312 3.878-10.394 10.238-.127 9.99-.13 19.984.002 29.975.08 6.14 3.882 9.937 9.996 10.13 4.992.162 9.99.035 14.988.046zM2086.677 767.254c-6.67 10.413-16.524 17.62-28.408 23.102h29.14l.59 1.016c-5.09 3.557-10.16 7.14-15.28 10.653-1.505 1.033-3.034 2.308-4.736 2.733-12.015 3.004-15.378 12.184-19.143 22.836-19.654 55.627-57.43 93.82-115.217 107.43-60.21 14.18-113.114-2.7-156.978-46.717-.323-.324-.528-.768-1.545-2.283 29.23 10.684 57.408 10.773 86.285-.74-24.194-9.498-37.79-26.414-40.344-51.914l21.87 5.414c.2-.39.398-.78.598-1.168-23.714-15.73-32.758-37.38-27.155-65.26l20.7 12.445c.354-.405.71-.81 1.063-1.218-10.348-13.578-14.39-28.82-11.673-45.517 2.113-12.98 8.318-24.162 16.344-30.98 20.414 42.81 52.68 72.347 97.957 87.912 1.517-18.142 8.616-32.82 22.828-43.71 26.06-19.968 64.697-13.422 82.434 14.162 2.277 3.542 4.623 5.106 8.8 4.675 10.53-1.09 21.087-1.918 31.87-2.87zM1381.002 707.03c45.984 0 91.97-.003 137.954 0 10.312 0 13.014 2.703 13.015 13.005.003 65.98.003 131.957 0 197.934 0 10.298-2.702 13-13.018 13-91.97.003-183.938.003-275.908 0-10.312 0-13.014-2.702-13.015-13.005-.003-65.977-.003-131.955 0-197.934 0-10.298 2.702-13 13.018-13 45.984-.003 91.97 0 137.954 0zm117.022 20.34H1263.91c1.585 1.728 2.614 2.935 3.73 4.054 18.595 18.646 37.2 37.282 55.805 55.916 14.956 14.98 30.003 29.866 44.824 44.977 4.537 4.627 9.767 7.89 15.927 5.79 4.458-1.515 8.61-4.903 12.04-8.32 32.95-32.807 65.72-65.796 98.528-98.743.994-1 1.876-2.11 3.26-3.675zm-1.03 183.25l-77.685-77.313c-4.353 4.07-9.11 8.713-14.07 13.125-18.77 16.69-29.743 16.674-48.536-.06-5.05-4.495-9.917-9.2-13.858-12.87-26.13 25.986-51.92 51.63-77.552 77.12h231.7zm-169.772-91.495c-25.533-25.488-51.276-51.19-76.84-76.71V895.74l76.84-76.613zm107.603-.404l76.78 76.69V742.077l-76.78 76.643zM373.987 761.703c.142 13.205-2.932 25.78-8.093 37.79-23.59 54.896-47.338 109.722-71.027 164.573-2.73 6.326-5.2 8.047-11.08 8.082-5.654.035-8.563-3.006-10.695-7.984-21.3-49.742-42.676-99.45-64.206-149.094-5.214-12.02-11.685-23.426-14.31-36.56-10.063-50.335 26.035-100.526 77.02-106.634 55.11-6.602 102.415 34.9 102.39 89.827zm-50.994-.258c-.016-21.686-17.648-39.38-39.298-39.438-21.95-.06-39.704 17.633-39.688 39.547.016 21.686 17.648 39.38 39.298 39.438 21.95.06 39.705-17.632 39.688-39.547zM797.733 892.746c34.02-39.768 60.786-83.25 80.435-131.857-5.62-2.128-10.984-4.1-16.303-6.187-8.402-3.297-11.982-10.932-8.854-19.357 7.572-20.396 15.214-40.766 22.962-61.094 3.74-9.814 10.615-12.252 20.726-9.285 15.424 4.523 27.52 13.633 37.98 25.332 6.39 7.147 8.492 14.957 5.745 24.77-5.796 20.698-13.862 40.45-22.375 60.112-21.874 50.523-50.077 97.246-84.502 140.12-13.103 16.32-27.52 31.593-41.555 47.145-3.537 3.92-7.774 7.262-11.945 10.545-4.99 3.93-11.068 3.78-16.745 2.645-17.572-3.508-32.546-11.963-44.872-25.027-4.9-5.195-5.122-13.895.02-19.578 15.273-16.88 30.658-33.656 46.137-50.346 4.973-5.36 12.705-5.447 18.975-.562 2.353 1.832 4.488 3.945 6.717 5.936 2.223 1.987 4.44 3.98 7.456 6.686zM2436.3 824.885h-27.604v-47.63h28.235c0-12.864-.133-25.14.04-37.41.152-10.743 3.147-20.678 9.626-29.377 8.29-11.13 20.057-16.995 33.273-17.886 17.353-1.168 34.844-.286 52.64-.286v45.036h-17.72c-3.666-.002-7.332-.053-10.997.005-7 .11-11.52 3.803-11.87 10.85-.458 9.11-.112 18.262-.112 28.032h41.775l-4.858 47.67h-37.797v132.26h-54.63V824.886z"/></g></svg>