<?xml version="1.0" encoding="utf-8"?>
<!-- Generator: Adobe Illustrator 16.0.0, SVG Export Plug-In . SVG Version: 6.00 Build 0)  -->
<!DOCTYPE svg PUBLIC "-//W3C//DTD SVG 1.1//EN" "http://www.w3.org/Graphics/SVG/1.1/DTD/svg11.dtd">
<svg version="1.1" id="Layer_1" xmlns="http://www.w3.org/2000/svg" xmlns:xlink="http://www.w3.org/1999/xlink" x="0px" y="0px"
	 width="500px" height="400px" viewBox="0 0 500 400" enable-background="new 0 0 500 400" xml:space="preserve">
<g id="KEN7vv_1_">
	<g>
		<path fill-rule="evenodd" clip-rule="evenodd" fill="#FFFFFF" d="M260.648,184.695c11.699-0.879,22.833-2.258,33.984-2.421
			c15.337-0.225,30.704,0.107,46.026,0.854c26.303,1.28,51.742,7.186,76.523,15.888c19.233,6.754,37.149,15.955,52.869,29.213
			c9.651,8.141,17.703,17.532,22.657,29.095c6.042,14.104,5.943,28.508-0.38,43.303c-6.517-8.045-12.429-16.312-21.754-21.78
			c6.13,18.97,5.2,36.688-7.904,52.841c-9.93-27.27-26.549-40.195-37.064-46.905c1.033,4.595,1.96,8.246,2.668,11.94
			c2.842,14.843-0.316,27.799-12.16,37.948c-0.604,0.518-1.309,0.916-2.484,1.729c-2-21.082-11.882-37.316-28.147-50.12
			c-3.336,5.317-6.313,10.417-9.626,15.289c-21.31,31.333-50.735,50.624-87.786,57.918c-29.029,5.714-57.091,2.186-84.038-10.387
			c-15.269-7.124-28.84-16.541-40.391-28.69c-22.669-23.844-35.749-52.148-37.991-85.12c-0.65-9.566,0.01-19.226-0.742-28.778
			c-0.896-11.375-9.517-25.517-23.673-27.048c-6.231-0.675-12.782,0.392-19.044,1.487c-10.033,1.756-20.04,3.848-29.881,6.46
			c-7.385,1.961-14.386,5.108-20.128,10.541c-0.851,0.805-2.995,1.169-4.054,0.682c-8.516-3.92-16.018-9.177-21.106-17.321
			c-6.607-10.574-5.565-25.789,4.924-36.232c8.265-8.228,18.324-13.632,29.235-16.585c15.43-4.176,31.203-7.175,46.938-10.09
			c8.015-1.485,16.286-1.534,24.399-2.564c2.494-0.317,4.977-1.493,7.239-2.7c3.601-1.919,5.339-4.75,5.381-9.261
			c0.32-34.064,22.245-59.786,53.818-66.665c20.944-4.563,40.718,0.373,57.454,14.475c16.001,13.484,24.036,30.946,24.19,51.826
			c0.188,25.52,0.045,51.041,0.046,76.562C260.648,181.567,260.648,183.057,260.648,184.695z M357.863,283.778
			c-10.76-2.868-20.928-5.114-30.795-8.296c-26.902-8.675-51.206-21.776-70.121-43.394c-14.257-16.294-21.831-35.11-21.592-57.028
			c0.26-23.871-0.406-47.758,0.194-71.616c0.54-21.443-19.326-42.033-41.521-42.611c-23.937-0.623-44.119,20.752-43.871,42.316
			c0.475,41.156,0.027,82.321,0.234,123.481c0.038,7.631,0.382,15.5,2.24,22.841c8.388,33.132,27.287,58.313,57.644,74.778
			c24.591,13.338,50.734,15.943,77.343,10.043c23.354-5.179,43.288-17.548,59.046-35.92
			C350.638,293.742,354.117,288.69,357.863,283.778z M266.561,205.343c1.04,2.143,1.667,3.615,2.443,5.006
			c4.859,8.709,11.168,16.255,18.657,22.8c20.588,17.991,45.075,27.636,71.456,33.136c2.511,0.523,5.352,1.274,7.67,0.616
			c11.015-3.128,22.083-6.236,32.756-10.33c5.075-1.947,9.793-5.569,13.81-9.349c5.28-4.969,5.112-11.099,0.184-16.405
			c-2.388-2.57-5.157-5.264-8.307-6.563c-10.438-4.309-20.844-9.432-31.786-11.619c-17.649-3.528-35.658-5.848-53.624-7.04
			C302.39,204.437,284.823,205.343,266.561,205.343z M124.591,130.393c-4.892,1.444-9.827,3.186-14.898,4.301
			c-3.581,0.788-7.358,0.632-11.029,1.06c-17.848,2.077-35.606,4.711-52.381,11.513c-4.896,1.985-9.429,4.93-13.955,7.717
			c-1.325,0.816-2.05,2.604-3.051,3.947c1.516,0.427,2.192,0.274,2.764-0.058c3.241-1.88,5.444-1.613,8.225,1.619
			c3.948,4.589,9.869,7.558,15.814,5.924c17.395-4.78,35.048-5.76,52.915-5.674c5.819,0.028,9.899,2.578,13.277,6.855
			c0.82,1.039,1.435,2.239,2.319,3.644C124.591,156.977,124.591,143.184,124.591,130.393z"/>
	</g>
</g>
</svg>
