<?xml version="1.0" encoding="utf-8"?>
<!-- Generator: Adobe Illustrator 16.0.0, SVG Export Plug-In . SVG Version: 6.00 Build 0)  -->
<!DOCTYPE svg PUBLIC "-//W3C//DTD SVG 1.1//EN" "http://www.w3.org/Graphics/SVG/1.1/DTD/svg11.dtd">
<svg version="1.1" id="Layer_1" xmlns="http://www.w3.org/2000/svg" xmlns:xlink="http://www.w3.org/1999/xlink" x="0px" y="0px"
	 width="4000px" height="1000px" viewBox="0 0 4000 1000" enable-background="new 0 0 4000 1000" xml:space="preserve">
<g>
	<g>
		<path fill="#FFFFFF" d="M85.038,263.438h828.779c32.643,0,59.127-26.494,59.127-59.189s-26.484-59.189-59.127-59.189H85.038
			c-32.625,0-59.127,26.494-59.127,59.189S52.413,263.438,85.038,263.438z M913.817,737.016H85.038
			c-32.625,0-59.127,26.495-59.127,59.188c0,32.695,26.502,59.188,59.127,59.188h828.779c32.643,0,59.127-26.493,59.127-59.188
			C972.944,763.511,946.459,737.016,913.817,737.016z M913.817,441.064H85.038c-32.625,0-59.127,26.493-59.127,59.132
			c0,32.693,26.502,59.25,59.127,59.25h828.779c32.643,0,59.127-26.557,59.127-59.25
			C972.944,467.559,946.459,441.064,913.817,441.064z"/>
	</g>
</g>
<g opacity="0.4">
	<g>
		<path fill="#252525" d="M1084.602,263.438h828.78c32.644,0,59.127-26.494,59.127-59.189s-26.483-59.189-59.127-59.189h-828.78
			c-32.625,0-59.127,26.494-59.127,59.189S1051.977,263.438,1084.602,263.438z M1913.382,737.016h-828.78
			c-32.625,0-59.127,26.495-59.127,59.188c0,32.695,26.502,59.188,59.127,59.188h828.78c32.644,0,59.127-26.493,59.127-59.188
			C1972.509,763.511,1946.024,737.016,1913.382,737.016z M1913.382,441.064h-828.78c-32.625,0-59.127,26.493-59.127,59.132
			c0,32.693,26.502,59.25,59.127,59.25h828.78c32.644,0,59.127-26.557,59.127-59.25
			C1972.509,467.559,1946.024,441.064,1913.382,441.064z"/>
	</g>
</g>
<rect x="1999.977" display="none" fill="#939598" width="1000.017" height="1000"/>
<g>
	<g>
		<path fill="#FFFFFF" d="M2778.427,713.894l-498.521-498.521c-19.624-19.625-51.503-19.629-71.136,0.003
			c-19.666,19.666-19.697,51.581-0.072,71.205l498.521,498.521c19.636,19.636,51.539,19.593,71.205-0.073
			C2798.055,765.396,2798.062,733.528,2778.427,713.894z"/>
	</g>
</g>
<g>
	<g>
		<path fill="#FFFFFF" d="M2778.381,215.374c-19.632-19.632-51.511-19.627-71.135-0.003l-498.521,498.521
			c-19.636,19.636-19.629,51.502,0.004,71.135c19.666,19.666,51.569,19.709,71.205,0.073l498.521-498.521
			C2798.079,266.955,2798.047,235.04,2778.381,215.374z"/>
	</g>
</g>
<rect x="2999.992" display="none" fill="#939598" width="1000.016" height="1000"/>
<path opacity="0.4" fill="#252525" d="M3564.799,500.25l213.671-213.671c19.625-19.624,19.593-51.539-0.073-71.205
	c-19.633-19.632-51.512-19.627-71.136-0.003l-213.671,213.67l-213.67-213.67c-19.624-19.625-51.503-19.629-71.135,0.003
	c-19.666,19.666-19.698,51.581-0.073,71.205l213.67,213.67l-213.643,213.643c-19.636,19.636-19.628,51.502,0.004,71.135
	c19.666,19.666,51.569,19.709,71.205,0.073l213.643-213.643l213.642,213.643c19.636,19.636,51.539,19.593,71.205-0.073
	c19.633-19.631,19.64-51.499,0.004-71.134L3564.799,500.25z"/>
</svg>
