<?xml version="1.0" encoding="utf-8"?>
<!-- Generator: Adobe Illustrator 16.0.0, SVG Export Plug-In . SVG Version: 6.00 Build 0)  -->
<!DOCTYPE svg PUBLIC "-//W3C//DTD SVG 1.1//EN" "http://www.w3.org/Graphics/SVG/1.1/DTD/svg11.dtd">
<svg version="1.1" xmlns="http://www.w3.org/2000/svg" xmlns:xlink="http://www.w3.org/1999/xlink" x="0px" y="0px" width="2000px"
	 height="1000px" viewBox="0 0 2000 1000" enable-background="new 0 0 2000 1000" xml:space="preserve">
<g id="Layer_1">
	<rect display="none" fill="#DCDBDB" stroke="#000000" stroke-miterlimit="10" width="1000" height="1000"/>
</g>
<g id="Layer_2">
	<g id="IRF7XD_2_">
		<g>
			<path fill-rule="evenodd" clip-rule="evenodd" fill="#FFFFFF" d="M7.999,527.285c1.751,0.681,3.524,1.351,5.274,2.066
				c27.746,11.43,56.69,17.269,86.585,19.03c29.496,1.738,58.663-0.422,87.243-7.858c19.875-5.169,38.152-13.803,52.883-28.709
				c5.098-5.193,10.055-10.514,15.106-15.775c1.786-1.868,2.702-3.994,2.749-6.684c0.305-17.244,0.541-34.512,1.127-51.744
				c0.212-6.461,0.893-12.98,2.138-19.323c2.068-10.513,4.816-20.897,7.166-31.352c2.419-10.748,6.836-20.721,11.605-30.553
				c4.722-9.633,9.304-19.347,14.167-28.897c3.289-6.402,5.309-13.051,6.108-20.181c3.054-26.9,9.256-53.189,15.624-79.431
				c1.456-6.062,4.111-11.488,7.612-16.622c9.42-13.803,19.945-26.642,31.833-38.447c20.439-20.24,40.784-40.584,59.555-62.398
				c3.595-4.182,8.058-7.647,12.428-11.042c5.921-4.593,12.146-8.739,18.16-13.168c8.129-5.991,17.08-10.161,26.946-12.393
				c15.13-3.407,30.166-7.236,45.39-10.149c15.998-3.043,32.067-2.456,47.902,1.609c0.916,0.234,1.88,0.422,2.773,0.751
				c8.198,3.102,15.646,2.831,22.882-3.101c3.243-2.654,7.895-3.947,12.099-5.027c12.429-3.208,24.928-6.026,37.426-8.963
				c8.786-2.056,17.571-1.245,26.219,0.634c11.417,2.467,22.881,4.934,34.111,8.046c16.516,4.569,32.187,11.312,46.352,21.074
				c22.271,15.376,22.295,15.423,37.943,37.577c4.628,6.566,8.997,13.368,12.849,20.416c1.976,3.583,2.751,7.917,3.667,12.005
				c0.609,2.807,1.902,4.769,4.251,6.437c10.009,7.107,19.993,14.237,29.767,21.661c3.431,2.62,6.461,5.92,9.28,9.256
				c10.713,12.78,18.512,27.111,22.883,43.31c1.974,7.377,4.581,14.589,6.742,21.919c0.728,2.479,1.95,4.312,3.9,6.049
				c14.754,13.145,29.836,25.937,43.79,39.881c7.52,7.494,13.063,16.95,19.312,25.654c1.057,1.468,1.339,3.571,1.785,5.415
				c2.608,10.795,5.262,21.579,7.729,32.42c2.187,9.633,2.279,19.394,0.519,29.097c-0.658,3.524,0.188,5.874,2.49,8.728
				c8.34,10.243,16.257,20.838,24.057,31.504c1.621,2.22,2.278,5.25,2.937,8.012c2.608,10.607,4.981,21.261,7.541,31.868
				c1.175,4.769,1.128,9.386,0.047,14.19c-7.8,35.37-17.643,70.198-27.252,105.085c-3.547,12.863-9.304,24.715-17.149,35.533
				c-4.723,6.531-9.303,13.146-14.166,19.547c-3.243,4.288-6.79,8.329-10.314,12.358c-9.069,10.383-18.16,20.768-27.345,31.058
				c-7.402,8.27-14.59,16.811-22.556,24.516c-21.379,20.649-42.898,41.125-64.746,61.259
				c-22.061,20.298-46.495,37.612-71.232,54.435c-16.681,11.347-35.521,17.818-54.881,22.939
				c-5.191,1.376-10.383,2.667-15.599,3.924c-3.83,0.929-6.931,2.844-9.608,5.838c-9.094,10.139-18.491,19.994-27.512,30.19
				c-13.273,14.94-29.438,26.241-46,37.024c-4.088,2.667-8.881,4.711-13.627,5.934c-15.929,4.099-31.881,8.468-48.067,11.346
				c-34.346,6.097-68.623,5.592-102.571-3.595c-17.737-4.791-35.874-7.987-53.235-14.272c-29.954-10.83-57.512-26.183-83.708-44.037
				c-26.125-17.831-51.826-36.262-75.272-57.664c-28.298-25.809-53.153-54.634-75.53-85.693
				c-14.567-20.228-28.768-40.666-41.748-61.964c-11.383-18.653-23.681-36.73-34.688-55.583
				c-16.445-28.17-30.166-57.736-42.863-87.748c-0.87-2.067-1.503-4.229-2.256-6.332C7.353,527.872,7.669,527.578,7.999,527.285z
				 M445.056,272.512c42.218-40.772,83.942-81.076,125.949-121.66c-1.552-0.705-2.373-1.187-3.289-1.48
				c-1.621-0.528-3.289-1.01-4.958-1.433c-14.754-3.607-29.624-3.16-44.543-1.233c-18.629,2.408-34.112,10.372-46.611,24.667
				c-11.724,13.392-24.127,26.23-36.438,39.117c-11.536,12.052-23.306,23.869-34.982,35.769c-5.262,5.368-8.551,11.806-9.915,19.112
				c-3.97,21.473-7.894,42.958-9.256,64.818c-0.259,4.3-1.386,8.728-3.031,12.733c-3.83,9.374-8.129,18.595-12.428,27.781
				c-5.286,11.265-10.901,22.401-16.163,33.666c-5.45,11.641-7.8,23.857-7.424,36.814c0.399,13.016,0.117,26.078-0.4,39.093
				c-0.353,9.174-1.08,18.383-2.49,27.452c-2.208,14.297-8.411,26.935-17.502,38.224c-20.627,25.55-44.731,46.812-74.686,60.801
				c-25.771,12.028-53,17.514-81.357,17.597c-3.982,0.012-7.964,0-12.921,0c1.209,2.572,1.926,4.476,2.936,6.213
				c29.907,52.049,66.04,99.178,111.053,139.177c34.864,30.998,73.159,56.935,115.917,75.895
				c30.682,13.578,62.704,21.473,96.487,20.062c13.18-0.54,26.384-1.95,39.469-3.7c14.848-1.996,27.816-8.305,38.341-19.193
				c3.735-3.853,7.588-7.588,11.254-11.501c10.854-11.63,21.496-23.47,32.515-34.957c8.388-8.774,18.489-14.778,30.564-17.257
				c4.11-0.834,8.152-2.056,12.24-3.101c24.033-6.155,46.376-15.812,65.992-31.27c9.914-7.836,20.252-15.235,29.579-23.728
				c23.799-21.709,47.079-43.945,70.62-65.912c9.868-9.173,18.584-19.334,27.11-29.719c7.402-9.021,15.131-17.819,23.213-26.23
				c12.498-12.956,21.778-27.744,26.618-45.048c6.625-23.61,12.826-47.315,19.286-70.95c1.998-7.248,0.801-13.72-4.321-19.229
				c-6.508-7.013-13.11-13.979-19.876-20.756c-6.719-6.696-12.662-7.259-20.579-1.856c-4.418,3.03-9.046,3.477-14.026,2.96
				c-0.541-7.706,0.094-9.444,3.571-14.86c4.018-6.273,8.082-12.592,11.441-19.218c6.577-12.968,8.786-26.841,7.517-41.312
				c-0.469-5.345-2.09-9.891-6.318-13.638c-13.462-11.958-26.665-24.198-40.08-36.239c-5.968-5.356-8.81-5.556-15.881-1.256
				c-5.567,3.383-11.043,6.907-16.446,10.548c-4.464,2.996-9.138,3.242-14.118,2.185c-1.857-5.721-1.245-10.76,2.161-15.506
				c5.355-7.471,10.407-15.153,15.88-22.542c3.901-5.25,4.793-10.49,2.373-16.668c-3.523-8.893-6.766-17.914-9.772-27.005
				c-1.762-5.38-4.935-9.339-9.491-12.557c-9.374-6.649-18.584-13.521-27.958-20.205c-2.16-1.551-4.486-2.925-6.882-4.088
				c-6.51-3.113-12.663-2.291-18.373,2.044c-1.362,1.033-2.537,2.772-4.041,3.101c-2.866,0.623-6.037,1.069-8.809,0.435
				c-2.115-0.481-2.608-5.65-1.176-8.951c0.893-2.103,2.043-4.135,3.29-6.05c2.067-3.218,4.369-6.296,6.483-9.492
				c1.48-2.231,2.938-4.499,4.11-6.894c2.045-4.288,1.74-8.552-0.774-12.617c-3.008-4.886-5.732-9.996-9.162-14.589
				c-2.466-3.289-5.498-6.46-8.929-8.692c-11.323-7.33-23.68-12.792-36.508-16.633c-15.669-4.711-31.129-3.63-45.013,6.332
				c-4.511,3.242-8.952,6.566-13.32,10.008c-46.353,36.567-92.611,73.229-139.058,109.689c-7.471,5.862-15.646,10.854-23.681,16.34
				C446.842,274.567,446.115,273.745,445.056,272.512z"/>
		</g>
	</g>
	<rect x="1000" display="none" fill="#DCDBDB" stroke="#000000" stroke-miterlimit="10" width="1000" height="1000"/>
	<g>
		<g id="XMLID_1_">
			<g>
				<path fill="#F7941E" d="M1901.49,463.9c5.12,5.51,6.31,11.98,4.319,19.23c-6.46,23.63-12.659,47.34-19.29,70.95
					c-4.84,17.3-14.119,32.09-26.619,45.05c-8.08,8.41-15.811,17.21-23.21,26.23c-8.53,10.38-17.24,20.54-27.11,29.72
					c-23.54,21.96-46.82,44.2-70.62,65.91c-9.33,8.49-19.67,15.89-29.58,23.729c-19.62,15.45-41.96,25.11-65.99,31.271
					c-4.09,1.04-8.13,2.26-12.239,3.1c-12.08,2.47-22.181,8.48-30.57,17.25c-11.021,11.49-21.66,23.33-32.51,34.96
					c-3.67,3.91-7.521,7.65-11.261,11.5c-10.52,10.891-23.489,17.2-38.34,19.19c-13.08,1.75-26.29,3.16-39.47,3.7
					c-33.78,1.409-65.8-6.48-96.48-20.061c-42.76-18.96-81.06-44.89-115.92-75.89c-45.01-40-81.14-87.13-111.05-139.181
					c-1.01-1.739-1.729-3.64-2.939-6.21c4.96,0,8.939,0.011,12.92,0c28.359-0.09,55.59-5.569,81.359-17.6
					c29.95-13.99,54.061-35.25,74.69-60.8c9.09-11.29,15.29-23.931,17.5-38.22c1.41-9.07,2.14-18.28,2.49-27.46
					c0.52-13.01,0.8-26.07,0.399-39.09c-0.38-12.95,1.971-25.17,7.42-36.81c5.261-11.27,10.88-22.4,16.16-33.67
					c4.3-9.18,8.601-18.41,12.431-27.78c1.649-4,2.779-8.43,3.029-12.73c1.37-21.86,5.29-43.35,9.26-64.82
					c1.36-7.31,4.65-13.74,9.91-19.11c11.681-11.9,23.45-23.72,34.99-35.77c12.311-12.89,24.71-25.73,36.43-39.12
					c12.5-14.29,27.99-22.26,46.61-24.66c14.92-1.93,29.79-2.38,44.55,1.23c1.67,0.42,3.33,0.9,4.96,1.43
					c0.91,0.3,1.73,0.78,3.28,1.48c-42,40.59-83.73,80.89-125.94,121.66c1.061,1.24,1.78,2.06,2.98,3.41
					c8.04-5.49,16.21-10.48,23.68-16.34c46.45-36.46,92.71-73.12,139.061-109.69c4.37-3.44,8.81-6.77,13.319-10.01
					c13.881-9.96,29.341-11.04,45.011-6.33c12.83,3.84,25.189,9.3,36.51,16.63c3.43,2.23,6.46,5.41,8.93,8.69
					c3.431,4.6,6.15,9.71,9.16,14.59c2.521,4.07,2.82,8.33,0.78,12.62c-1.181,2.4-2.63,4.66-4.11,6.89c-2.12,3.2-4.42,6.28-6.49,9.5
					c-1.25,1.91-2.399,3.94-3.29,6.05c-1.43,3.3-0.939,8.47,1.181,8.95c2.77,0.63,5.939,0.18,8.81-0.44c1.5-0.33,2.67-2.07,4.04-3.1
					c5.71-4.33,11.86-5.16,18.37-2.04c2.4,1.16,4.72,2.53,6.88,4.09c9.38,6.68,18.59,13.55,27.96,20.2
					c4.561,3.22,7.73,7.18,9.49,12.56c3.01,9.09,6.25,18.11,9.77,27c2.42,6.18,1.53,11.42-2.369,16.67
					c-5.471,7.39-10.521,15.07-15.881,22.54c-3.409,4.75-4.02,9.79-2.159,15.51c4.979,1.05,9.649,0.81,14.119-2.19
					c5.4-3.64,10.881-7.16,16.44-10.55c7.08-4.29,9.92-4.1,15.88,1.26c13.42,12.04,26.62,24.28,40.08,36.24
					c4.23,3.75,5.85,8.29,6.32,13.64c1.27,14.47-0.94,28.34-7.511,41.31c-3.359,6.63-7.43,12.95-11.439,19.22
					c-3.48,5.41-4.12,7.15-3.58,14.86c4.98,0.51,9.61,0.07,14.03-2.96c7.92-5.41,13.859-4.84,20.58,1.85
					C1888.38,449.92,1894.98,456.89,1901.49,463.9z"/>
				<path d="M1988.9,469.89c1.18,4.77,1.13,9.39,0.05,14.19c-7.8,35.37-17.641,70.2-27.25,105.09
					c-3.55,12.86-9.311,24.71-17.15,35.53c-4.72,6.53-9.3,13.14-14.17,19.55c-3.24,4.28-6.79,8.33-10.31,12.35
					c-9.07,10.391-18.16,20.771-27.351,31.061c-7.399,8.27-14.59,16.81-22.55,24.52c-21.38,20.65-42.9,41.12-64.75,61.261
					c-22.06,20.29-46.49,37.609-71.229,54.43c-16.681,11.35-35.521,17.82-54.881,22.939c-5.189,1.381-10.38,2.671-15.6,3.921
					c-3.83,0.93-6.93,2.85-9.61,5.84c-9.09,10.14-18.489,20-27.51,30.189c-13.27,14.94-29.439,26.24-46,37.03
					c-4.09,2.66-8.88,4.71-13.63,5.93c-15.93,4.101-31.88,8.471-48.06,11.351c-34.351,6.09-68.631,5.59-102.58-3.601
					c-17.73-4.79-35.87-7.989-53.23-14.27c-29.96-10.83-57.51-26.181-83.71-44.04c-26.12-17.83-51.83-36.26-75.27-57.66
					c-28.301-25.81-53.15-54.64-75.53-85.7c-14.57-20.22-28.771-40.66-41.75-61.96c-11.38-18.649-23.68-36.729-34.69-55.58
					c-16.439-28.17-30.159-57.74-42.859-87.75c-0.87-2.069-1.5-4.229-2.261-6.33c0.33-0.31,0.65-0.6,0.98-0.89
					c1.75,0.68,3.52,1.35,5.27,2.06c27.75,11.431,56.69,17.271,86.591,19.03c29.489,1.74,58.659-0.42,87.239-7.86
					c19.87-5.17,38.15-13.8,52.881-28.71c5.1-5.189,10.06-10.51,15.109-15.77c1.79-1.87,2.7-4,2.75-6.69
					c0.3-17.24,0.54-34.51,1.13-51.74c0.21-6.46,0.891-12.98,2.13-19.32c2.07-10.52,4.82-20.9,7.17-31.35
					c2.421-10.75,6.841-20.73,11.61-30.56c4.72-9.63,9.3-19.34,14.16-28.89c3.29-6.41,5.31-13.05,6.11-20.18
					c3.05-26.9,9.26-53.19,15.619-79.44c1.461-6.06,4.11-11.48,7.61-16.62c9.43-13.8,19.95-26.64,31.84-38.44
					c20.44-20.24,40.78-40.59,59.55-62.4c3.601-4.18,8.061-7.65,12.431-11.04c5.92-4.6,12.149-8.74,18.16-13.17
					c8.13-5.99,17.08-10.16,26.949-12.39c15.131-3.41,30.16-7.24,45.391-10.15c16-3.05,32.069-2.46,47.899,1.61
					c0.92,0.23,1.881,0.42,2.771,0.75c8.2,3.1,15.649,2.83,22.89-3.1c3.24-2.66,7.891-3.95,12.09-5.03
					c12.431-3.21,24.931-6.03,37.431-8.96c8.79-2.06,17.569-1.25,26.22,0.63c11.42,2.47,22.88,4.93,34.11,8.05
					c16.52,4.57,32.189,11.31,46.35,21.07c22.271,15.38,22.3,15.42,37.95,37.58c4.62,6.56,8.99,13.37,12.84,20.41
					c1.98,3.59,2.75,7.92,3.67,12.01c0.61,2.81,1.9,4.77,4.25,6.44c10.01,7.1,20,14.23,29.771,21.66c3.43,2.62,6.46,5.92,9.279,9.25
					c10.71,12.78,18.511,27.11,22.88,43.31c1.98,7.38,4.58,14.59,6.74,21.92c0.73,2.48,1.95,4.31,3.9,6.05
					c14.76,13.15,29.84,25.94,43.79,39.88c7.52,7.5,13.069,16.95,19.319,25.66c1.051,1.46,1.341,3.57,1.78,5.41
					c2.61,10.8,5.26,21.58,7.73,32.42c2.189,9.63,2.279,19.4,0.52,29.1c-0.66,3.52,0.19,5.87,2.49,8.73
					c8.34,10.24,16.26,20.83,24.06,31.5c1.62,2.22,2.271,5.25,2.931,8.01C1983.97,448.63,1986.34,459.28,1988.9,469.89z
					 M1905.81,483.13c1.99-7.25,0.801-13.72-4.319-19.23c-6.51-7.01-13.11-13.98-19.88-20.76c-6.721-6.69-12.66-7.26-20.58-1.85
					c-4.42,3.03-9.05,3.47-14.03,2.96c-0.54-7.71,0.1-9.45,3.58-14.86c4.01-6.27,8.08-12.59,11.439-19.22
					c6.57-12.97,8.78-26.84,7.511-41.31c-0.471-5.35-2.09-9.89-6.32-13.64c-13.46-11.96-26.66-24.2-40.08-36.24
					c-5.96-5.36-8.8-5.55-15.88-1.26c-5.56,3.39-11.04,6.91-16.44,10.55c-4.47,3-9.14,3.24-14.119,2.19
					c-1.86-5.72-1.25-10.76,2.159-15.51c5.36-7.47,10.41-15.15,15.881-22.54c3.899-5.25,4.789-10.49,2.369-16.67
					c-3.52-8.89-6.76-17.91-9.77-27c-1.76-5.38-4.93-9.34-9.49-12.56c-9.37-6.65-18.58-13.52-27.96-20.2
					c-2.16-1.56-4.479-2.93-6.88-4.09c-6.51-3.12-12.66-2.29-18.37,2.04c-1.37,1.03-2.54,2.77-4.04,3.1
					c-2.87,0.62-6.04,1.07-8.81,0.44c-2.12-0.48-2.61-5.65-1.181-8.95c0.891-2.11,2.04-4.14,3.29-6.05c2.07-3.22,4.37-6.3,6.49-9.5
					c1.48-2.23,2.93-4.49,4.11-6.89c2.04-4.29,1.74-8.55-0.78-12.62c-3.01-4.88-5.729-9.99-9.16-14.59
					c-2.47-3.28-5.5-6.46-8.93-8.69c-11.32-7.33-23.68-12.79-36.51-16.63c-15.67-4.71-31.13-3.63-45.011,6.33
					c-4.51,3.24-8.949,6.57-13.319,10.01c-46.351,36.57-92.61,73.23-139.061,109.69c-7.47,5.86-15.64,10.85-23.68,16.34
					c-1.2-1.35-1.92-2.17-2.98-3.41c42.21-40.77,83.94-81.07,125.94-121.66c-1.55-0.7-2.37-1.18-3.28-1.48
					c-1.63-0.53-3.29-1.01-4.96-1.43c-14.76-3.61-29.63-3.16-44.55-1.23c-18.62,2.4-34.11,10.37-46.61,24.66
					c-11.72,13.39-24.119,26.23-36.43,39.12c-11.54,12.05-23.31,23.87-34.99,35.77c-5.26,5.37-8.55,11.8-9.91,19.11
					c-3.97,21.47-7.89,42.96-9.26,64.82c-0.25,4.3-1.38,8.73-3.029,12.73c-3.83,9.37-8.131,18.6-12.431,27.78
					c-5.28,11.27-10.899,22.4-16.16,33.67c-5.449,11.64-7.8,23.86-7.42,36.81c0.4,13.02,0.12,26.08-0.399,39.09
					c-0.351,9.18-1.08,18.39-2.49,27.46c-2.21,14.289-8.41,26.93-17.5,38.22c-20.63,25.55-44.74,46.81-74.69,60.8
					c-25.77,12.03-53,17.51-81.359,17.6c-3.98,0.011-7.96,0-12.92,0c1.21,2.57,1.93,4.471,2.939,6.21
					c29.91,52.051,66.04,99.181,111.05,139.181c34.86,31,73.16,56.93,115.92,75.89c30.681,13.58,62.7,21.47,96.48,20.061
					c13.18-0.54,26.39-1.95,39.47-3.7c14.851-1.99,27.82-8.3,38.34-19.19c3.74-3.85,7.591-7.59,11.261-11.5
					c10.85-11.63,21.489-23.47,32.51-34.96c8.39-8.77,18.49-14.78,30.57-17.25c4.109-0.84,8.149-2.06,12.239-3.1
					c24.03-6.16,46.37-15.82,65.99-31.271c9.91-7.84,20.25-15.239,29.58-23.729c23.8-21.71,47.08-43.95,70.62-65.91
					c9.87-9.18,18.58-19.34,27.11-29.72c7.399-9.021,15.13-17.82,23.21-26.23c12.5-12.96,21.779-27.75,26.619-45.05
					C1893.15,530.47,1899.35,506.76,1905.81,483.13z"/>
			</g>
			<g>
			</g>
		</g>
	</g>
</g>
</svg>
