<svg xmlns="http://www.w3.org/2000/svg" width="500" height="400" viewBox="0 0 500 400"><path fill-rule="evenodd" clip-rule="evenodd" fill="#FFF" d="M260.648 184.695c11.7-.88 22.833-2.258 33.984-2.42 15.337-.226 30.704.106 46.026.853 26.303 1.28 51.742 7.186 76.523 15.888 19.234 6.754 37.15 15.955 52.87 29.213 9.65 8.14 17.703 17.53 22.657 29.094 6.042 14.104 5.943 28.508-.38 43.303-6.517-8.045-12.43-16.312-21.754-21.78 6.13 18.97 5.2 36.688-7.904 52.84-9.93-27.27-26.55-40.194-37.065-46.904 1.033 4.595 1.96 8.246 2.668 11.94 2.842 14.843-.316 27.8-12.16 37.948-.604.52-1.31.917-2.484 1.73-2-21.082-11.883-37.316-28.148-50.12-3.336 5.317-6.313 10.417-9.626 15.29-21.31 31.332-50.735 50.623-87.786 57.917-29.03 5.714-57.09 2.186-84.038-10.387-15.27-7.124-28.84-16.54-40.39-28.69-22.67-23.844-35.75-52.148-37.992-85.12-.65-9.566.01-19.226-.742-28.778-.896-11.375-9.517-25.517-23.673-27.048-6.23-.675-12.782.392-19.044 1.487-10.032 1.757-20.04 3.85-29.88 6.46-7.385 1.962-14.386 5.11-20.128 10.542-.85.805-2.995 1.17-4.054.682-8.516-3.92-16.018-9.177-21.106-17.32-6.607-10.575-5.565-25.79 4.924-36.233 8.265-8.227 18.324-13.63 29.235-16.584 15.43-4.176 31.204-7.175 46.94-10.09 8.014-1.485 16.285-1.534 24.398-2.564 2.494-.317 4.977-1.493 7.24-2.7 3.6-1.92 5.338-4.75 5.38-9.26.32-34.065 22.245-59.787 53.818-66.666 20.944-4.563 40.718.373 57.454 14.475 16 13.485 24.036 30.947 24.19 51.827.188 25.52.045 51.04.046 76.562.002 1.487.002 2.977.002 4.615zm97.215 99.083c-10.76-2.868-20.928-5.114-30.795-8.296-26.902-8.675-51.206-21.776-70.12-43.394-14.258-16.294-21.832-35.11-21.593-57.028.26-23.87-.406-47.758.194-71.616.54-21.443-19.327-42.033-41.522-42.61-23.937-.624-44.12 20.75-43.87 42.315.474 41.155.026 82.32.233 123.48.04 7.63.383 15.5 2.24 22.84 8.39 33.133 27.288 58.314 57.645 74.78 24.59 13.337 50.734 15.942 77.343 10.042 23.354-5.18 43.288-17.548 59.046-35.92 3.974-4.63 7.453-9.682 11.2-14.594zm-91.302-78.435c1.04 2.143 1.668 3.615 2.444 5.006 4.86 8.708 11.168 16.254 18.657 22.8 20.59 17.99 45.076 27.635 71.457 33.135 2.51.523 5.352 1.274 7.67.616 11.015-3.127 22.083-6.235 32.756-10.33 5.075-1.946 9.793-5.568 13.81-9.348 5.28-4.97 5.112-11.1.184-16.405-2.388-2.57-5.157-5.264-8.307-6.563-10.438-4.31-20.844-9.432-31.786-11.62-17.65-3.527-35.658-5.847-53.624-7.04-17.43-1.157-34.997-.25-53.26-.25zm-141.97-74.95c-4.89 1.444-9.826 3.186-14.897 4.3-3.58.79-7.358.633-11.03 1.06-17.847 2.078-35.605 4.712-52.38 11.514-4.896 1.985-9.43 4.93-13.955 7.717-1.325.816-2.05 2.604-3.05 3.947 1.515.428 2.19.275 2.763-.057 3.242-1.88 5.445-1.613 8.226 1.62 3.948 4.588 9.87 7.557 15.814 5.923 17.395-4.78 35.048-5.76 52.915-5.674 5.82.028 9.9 2.578 13.277 6.855.82 1.04 1.435 2.24 2.32 3.644v-40.847z"/></svg>