<svg xmlns="http://www.w3.org/2000/svg" width="1000" height="500" viewBox="0 0 1000 500"><path fill="#FFF" d="M193.733 250.487L386.828 66.025c15.17-14.492 15.17-37.983 0-52.477-15.17-14.49-39.773-14.49-54.918 0L112.16 223.45c-7.8 7.45-11.576 17.28-11.357 27.04-.22 9.764 3.56 19.595 11.357 27.058l219.75 209.9c15.145 14.47 39.75 14.47 54.918 0 15.17-14.516 15.17-38.007 0-52.498L193.733 250.487z"/><path fill="#FF6A6A" d="M693.733 250.487L886.827 66.025c15.17-14.492 15.17-37.983 0-52.477-15.17-14.49-39.772-14.49-54.918 0L612.16 223.45c-7.8 7.45-11.576 17.278-11.356 27.04-.22 9.763 3.56 19.594 11.355 27.057l219.75 209.9c15.145 14.47 39.747 14.47 54.917 0 15.17-14.516 15.17-38.007 0-52.498L693.733 250.486z"/></svg>